<svg width="757" height="136" viewBox="0 0 757 136" fill="none" xmlns="http://www.w3.org/2000/svg">
<g clip-path="url(#clip0_482_19)">
<path d="M0 12.6504C2.41 13.9704 4.35 15.0404 6.29 16.1004C24.81 26.3204 43.33 36.5304 61.85 46.7504C68.53 50.4504 72.57 56.0004 73.67 63.6004C73.81 64.5804 73.82 65.5804 73.82 66.5704C73.83 88.9304 73.83 111.28 73.82 133.64C73.82 134.05 73.79 134.46 73.76 135.04C73.23 134.78 72.82 134.59 72.42 134.37C58.4 126.64 44.4 118.9 30.37 111.19C25.34 108.42 22.01 104.35 21.28 98.6104C20.89 95.5604 21.21 92.4104 21.21 89.1104C33.62 95.9504 45.95 102.75 58.55 109.7C58.55 108.84 58.55 108.3 58.55 107.75C58.55 94.2804 58.51 80.8104 58.58 67.3404C58.6 63.6904 57.14 61.1704 53.94 59.4204C39.12 51.3004 24.34 43.1004 9.53 34.9504C4.79 32.3404 1.49 28.5704 0.58 23.2104C0.02 19.8804 0.18 16.4504 0 12.6504Z" fill="black"/>
<path d="M131.3 89.1002C131.3 92.4202 131.62 95.5702 131.23 98.6302C130.52 104.25 127.3 108.32 122.36 111.05C109.01 118.42 95.6605 125.79 82.3005 133.15C81.1905 133.76 80.0805 134.37 78.7805 135.08C78.7405 134.48 78.6905 134.04 78.6905 133.61C78.6905 111.25 78.6605 88.9002 78.7005 66.5402C78.7205 58.0202 82.5005 51.4202 89.8605 47.2902C110.29 35.8402 130.84 24.6102 151.34 13.2902C151.58 13.1602 151.84 13.0702 152.11 12.9502C152.91 21.6702 152.6 29.5702 143.06 34.8702C128.24 43.1002 113.4 51.2802 98.5305 59.4302C95.3905 61.1502 93.9105 63.6302 93.9205 67.2202C93.9805 80.7402 93.9405 94.2602 93.9405 107.77C93.9405 108.28 93.9405 108.8 93.9405 109.68C106.51 102.76 118.83 95.9702 131.3 89.1002Z" fill="black"/>
<path d="M98.0296 16.75C99.8396 18.48 101.53 20.11 103.35 21.86C105.76 20.49 108.51 18.93 111.43 17.27C113.18 20.33 114.9 23.33 116.67 26.41C111.39 29.43 106.19 32.4 100.93 35.4C96.3496 24.35 88.4196 17.77 76.2996 17.76C64.1696 17.74 56.2296 24.28 51.5896 35.4C46.3696 32.42 41.1896 29.46 35.8496 26.42C37.5996 23.36 39.3196 20.36 41.0796 17.27C43.9696 18.91 46.7496 20.49 49.1996 21.88C51.0096 20.13 52.6696 18.53 54.4896 16.77C53.0096 14.22 51.4096 11.46 49.7196 8.56C52.7096 6.8 55.6596 5.07 58.7896 3.23C60.4296 6 62.0496 8.74 63.6696 11.48C65.9996 10.9 68.2796 10.37 70.5196 9.71C70.7896 9.63 70.9896 8.86 70.9896 8.41C71.0296 5.63 71.0096 2.86 71.0096 0C74.5296 0 77.9096 0 81.4996 0C81.4996 2.6 81.5996 5.18 81.4596 7.76C81.3796 9.22 81.7796 9.85 83.2796 10.07C84.8096 10.3 86.2996 10.8 87.7696 11.32C88.5796 11.61 88.9396 11.42 89.3296 10.72C90.7296 8.26 92.1796 5.83 93.7096 3.23C96.7496 5.01 99.7396 6.76 102.8 8.55C101.14 11.41 99.5296 14.17 98.0296 16.75Z" fill="black"/>
<path d="M6.93964 40.3496C7.56964 40.6596 7.98964 40.8396 8.38964 41.0596C21.2096 48.1296 34.0096 55.2396 46.8396 62.2796C51.4596 64.8096 53.7896 68.5396 53.7296 73.8796C53.6396 82.0596 53.7096 90.2396 53.7096 98.4096C53.7096 98.9196 53.7096 99.4196 53.7096 100.13C53.1196 99.8296 52.6996 99.6396 52.2996 99.4196C44.3196 95.0196 36.3496 90.5996 28.3496 86.2296C23.4596 83.5596 20.8996 79.5796 21.0796 73.9296C21.1196 72.5596 21.0896 71.1896 21.0896 69.4796C28.1996 73.3896 35.0996 77.1996 42.2696 81.1496C42.2696 78.2696 42.3296 75.6496 42.2096 73.0396C42.1896 72.6196 41.4896 72.1096 40.9896 71.8296C32.1696 66.9296 23.3496 61.9996 14.4596 57.1796C9.33964 54.4096 6.73964 50.2796 6.92964 44.4396C6.97964 43.1696 6.93964 41.8896 6.93964 40.3496Z" fill="black"/>
<path d="M145.76 40.3096C145.56 43.2896 145.66 46.0496 145.14 48.6896C144.41 52.4096 141.96 55.0296 138.65 56.8496C130.09 61.5596 121.57 66.3696 112.95 70.9696C110.89 72.0696 109.86 73.2396 110.17 75.6496C110.39 77.3596 110.21 79.1096 110.21 81.1896C117.38 77.2396 124.28 73.4396 131.41 69.5196C131.35 73.4896 131.96 77.2296 130.01 80.6896C128.84 82.7596 127.31 84.4696 125.24 85.6196C116.66 90.3896 108.05 95.1296 99.4496 99.8796C99.3296 99.9496 99.1896 99.9596 98.9096 100.04C98.8796 99.5596 98.8196 99.1196 98.8196 98.6796C98.8196 90.2196 98.8196 81.7596 98.8096 73.2996C98.7996 68.6296 100.83 65.0596 104.86 62.8096C118.09 55.4196 131.38 48.1296 144.65 40.7996C144.89 40.6496 145.15 40.5696 145.76 40.3096Z" fill="black"/>
<path d="M76.2703 25.29C76.9803 27.4 77.5903 29.13 78.1403 30.88C78.3703 31.61 78.7603 31.94 79.5603 31.91C81.3403 31.86 83.1203 31.89 85.0203 32.22C83.6503 33.25 82.3103 34.32 80.9003 35.29C80.1203 35.83 79.8703 36.34 80.2203 37.28C80.8203 38.9 81.2503 40.58 81.8903 42.66C79.8003 41.2 78.0503 39.97 76.2603 38.72C74.4803 39.97 72.7503 41.19 70.6503 42.66C71.2803 40.59 71.7203 38.9 72.3103 37.25C72.6203 36.38 72.4603 35.87 71.7103 35.35C70.2803 34.36 68.9103 33.29 67.5703 31.91C68.8103 31.91 70.0503 31.94 71.2903 31.9C74.6903 31.81 73.7403 32.39 74.9203 29.23C75.3703 28.05 75.7403 26.84 76.2703 25.29Z" fill="black"/>
<path d="M756 76.6204C756 80.1104 756.05 83.6004 755.99 87.0904C755.84 96.5104 748.4 104.26 738.95 104.54C731.72 104.75 724.48 104.74 717.25 104.54C707.97 104.28 700.55 96.9404 700.17 87.5104C699.89 80.2904 699.88 73.0404 700.17 65.8204C700.55 56.0804 708.17 48.8704 717.95 48.7104C724.68 48.6004 731.42 48.6004 738.15 48.7104C748.42 48.8704 755.92 56.5904 755.98 66.9004C756.01 70.1404 756 73.3804 756 76.6204ZM728.33 62.5704C725.34 62.5704 722.35 62.4704 719.36 62.6004C716.16 62.7304 714.16 64.5104 714.07 67.7304C713.9 73.5804 713.91 79.4404 714.02 85.2904C714.08 88.6804 716.07 90.6304 719.44 90.7104C725.17 90.8404 730.9 90.8204 736.63 90.7204C740.01 90.6604 742.05 88.7704 742.14 85.3804C742.29 79.5304 742.3 73.6704 742.13 67.8204C742.03 64.4304 739.94 62.6504 736.55 62.5704C733.81 62.5104 731.07 62.5604 728.33 62.5704Z" fill="black"/>
<path d="M558.949 104.391C554.679 104.391 550.489 104.391 545.839 104.391C545.839 97.3408 545.839 90.3108 545.839 83.0308C536.219 83.0308 527.059 83.0308 517.409 83.0308C517.409 90.0408 517.409 97.0608 517.409 104.341C512.649 104.341 508.379 104.341 503.629 104.341C503.629 101.121 503.629 98.0408 503.629 94.9608C503.629 85.7408 503.559 76.5108 503.659 67.2908C503.779 55.9508 511.159 48.7308 522.529 48.6908C529.009 48.6708 535.499 48.5708 541.969 48.7208C551.299 48.9408 558.939 55.9108 559.189 65.0608C559.539 77.6408 559.309 90.2308 559.299 102.821C559.289 103.281 559.089 103.751 558.949 104.391ZM517.249 73.2508C526.969 73.2508 536.209 73.2508 545.589 73.2508C545.649 71.8508 545.749 70.7508 545.739 69.6508C545.709 64.5608 543.819 62.6008 538.829 62.5608C533.599 62.5208 528.379 62.5408 523.149 62.5608C519.529 62.5808 517.689 64.6408 517.289 68.0508C517.099 69.6308 517.249 71.2508 517.249 73.2508Z" fill="black"/>
<path d="M569.37 48.8703C573.72 48.8703 578.03 48.8703 582.89 48.8703C582.89 50.2503 582.89 51.5704 582.89 52.8904C582.89 63.2404 582.87 73.5903 582.9 83.9503C582.92 88.9003 584.7 90.6904 589.65 90.7604C594.51 90.8204 599.38 90.8204 604.24 90.7604C609.35 90.7004 611.09 88.9204 611.11 83.6604C611.15 73.4304 611.12 63.2104 611.12 52.9804C611.12 51.6504 611.12 50.3104 611.12 48.8604C615.93 48.8604 620.24 48.8604 624.95 48.8604C624.95 55.3604 624.95 61.6904 624.95 68.0104C624.95 74.2504 625.02 80.4804 624.93 86.7204C624.78 96.8004 617.16 104.44 607.1 104.57C600.24 104.66 593.38 104.69 586.52 104.56C577.01 104.37 569.28 96.9803 569.1 87.4903C568.85 75.0203 569.04 62.5504 569.06 50.0704C569.06 49.7304 569.23 49.3903 569.37 48.8703Z" fill="black"/>
<path d="M362.719 48.75C362.719 51.82 362.719 54.41 362.719 57.47C361.209 57.56 359.779 57.72 358.349 57.72C347.739 57.74 337.139 57.66 326.529 57.77C319.679 57.84 316.059 61.78 315.839 68.57C315.739 71.45 316.789 72.14 319.509 72.11C332.489 71.99 345.459 72.06 358.439 72.06C359.779 72.06 361.119 72.06 362.639 72.06C362.639 75.21 362.639 77.92 362.639 81.11C347.269 81.11 331.879 81.11 316.639 81.11C314.049 90.12 319.769 95.8 326.999 95.61C337.349 95.34 347.709 95.54 358.069 95.54C359.529 95.54 360.979 95.54 362.629 95.54C362.629 98.73 362.629 101.42 362.629 104.37C361.489 104.45 360.409 104.58 359.329 104.58C348.469 104.6 337.619 104.62 326.759 104.58C315.109 104.54 306.989 96.46 306.899 84.83C306.859 79.09 306.809 73.35 306.919 67.61C307.109 57.66 314.379 49.28 324.239 48.87C336.919 48.36 349.639 48.75 362.719 48.75Z" fill="black"/>
<path d="M467.91 74.1105C478.18 84.2705 488.01 94.0005 498.62 104.51C491.38 104.37 485.33 106.06 480.24 99.7705C474.79 93.0305 468.08 87.3005 461.86 81.0905C454.15 88.8505 446.63 96.4205 439.12 103.99C438.83 103.8 438.54 103.61 438.25 103.42C438.25 85.3305 438.25 67.2305 438.25 48.9105C440.94 48.9105 443.63 48.9105 446.95 48.9105C446.95 58.3805 446.95 67.8705 446.95 78.3805C449.18 76.6505 450.53 75.6305 451.86 74.5805C469.85 60.3205 487.81 46.0205 505.86 31.8305C507.33 30.6805 509.36 30.2405 511.12 29.4805C511.35 29.8605 511.58 30.2305 511.8 30.6105C497.24 45.0505 482.67 59.4805 467.91 74.1105Z" fill="black"/>
<path d="M296.93 104.401C294.01 104.401 291.33 104.401 288.2 104.401C288.2 96.7807 288.2 89.2507 288.2 81.5007C275.49 81.5007 263.22 81.5007 250.53 81.5007C250.53 89.1607 250.53 96.7007 250.53 104.411C247.42 104.411 244.74 104.411 241.75 104.411C241.75 85.9207 241.75 67.5507 241.75 48.9307C244.51 48.9307 247.21 48.9307 250.32 48.9307C250.32 56.3607 250.32 63.9007 250.32 71.7407C263 71.7407 275.27 71.7407 287.96 71.7407C287.96 64.3107 287.96 56.7707 287.96 48.9607C291.15 48.9607 293.92 48.9607 296.93 48.9607C296.93 67.4507 296.93 85.8307 296.93 104.401Z" fill="black"/>
<path d="M690.14 48.9609C690.14 53.5109 690.14 57.8109 690.14 62.5409C683.2 62.5409 676.52 62.5409 669.47 62.5409C669.47 76.6409 669.47 90.3109 669.47 104.291C664.82 104.291 660.54 104.291 655.75 104.291C655.75 90.5109 655.75 76.7509 655.75 62.5709C648.58 62.5709 641.9 62.5709 634.96 62.5709C634.96 57.8509 634.96 53.5409 634.96 48.9609C653.23 48.9609 671.5 48.9609 690.14 48.9609Z" fill="black"/>
<path d="M231.57 104.56C218.63 104.56 206.03 104.86 193.46 104.46C183.52 104.15 175.95 95.6504 175.86 85.6304C175.81 79.6404 175.81 73.6504 175.86 67.6704C175.95 57.6404 183.45 49.1704 193.45 48.8304C206.02 48.4004 218.62 48.7304 231.48 48.7304C231.48 51.6704 231.48 54.4404 231.48 57.7304C229.92 57.7304 228.47 57.7304 227.01 57.7304C216.78 57.7304 206.55 57.7004 196.32 57.7404C188.45 57.7704 184.84 61.3604 184.78 69.1504C184.74 74.3904 184.69 79.6304 184.8 84.8704C184.94 91.7704 188.64 95.4604 195.57 95.5104C206.05 95.6004 216.53 95.5404 227.01 95.5404C228.47 95.5404 229.93 95.5404 231.56 95.5404C231.57 98.7404 231.57 101.43 231.57 104.56Z" fill="black"/>
<path d="M427.979 104.591C418.049 104.591 408.339 104.651 398.639 104.561C394.789 104.531 390.849 104.651 387.109 103.901C378.859 102.241 373.039 95.3705 372.689 87.0105C372.399 80.1605 372.379 73.2805 372.679 66.4305C373.089 56.9805 380.379 49.2105 389.879 48.8605C402.449 48.3905 415.049 48.7405 428.249 48.7405C428.249 51.2205 428.539 53.5905 428.099 55.8105C427.929 56.6305 426.029 57.6205 424.899 57.6405C414.289 57.7805 403.679 57.6105 393.079 57.8105C390.569 57.8605 387.849 58.5105 385.639 59.6705C382.699 61.2205 381.549 64.2205 381.559 67.5805C381.569 73.3205 381.529 79.0605 381.569 84.8005C381.609 91.7405 385.199 95.4505 392.169 95.5105C402.029 95.6005 411.889 95.4605 421.749 95.5705C428.749 95.6405 428.339 93.9905 428.269 102.511C428.259 103.001 428.129 103.491 427.979 104.591Z" fill="black"/>
</g>
<defs>
<clipPath id="clip0_482_19">
<rect width="756.01" height="135.07" fill="white"/>
</clipPath>
</defs>
</svg>
