<svg width="169" height="27" viewBox="0 0 169 27" fill="none" xmlns="http://www.w3.org/2000/svg">
<path d="M16.7805 10.8L13.5 0L10.2195 10.8H0L8.343 16.7535L5.1705 27L13.5 20.6685L21.843 27L18.6705 16.7535L27 10.8H16.7805Z" fill="#F3B20A"/>
<path d="M52.159 10.8L49 0L45.841 10.8H36L44.034 16.7535L40.979 27L49 20.6685L57.034 27L53.979 16.7535L62 10.8H52.159Z" fill="#F3B20A"/>
<path d="M88.159 10.8L85 0L81.841 10.8H72L80.034 16.7535L76.979 27L85 20.6685L93.034 27L89.979 16.7535L98 10.8H88.159Z" fill="#F3B20A"/>
<path d="M123.159 10.8L120 0L116.841 10.8H107L115.034 16.7535L111.979 27L120 20.6685L128.034 27L124.979 16.7535L133 10.8H123.159Z" fill="#F3B20A"/>
<path d="M158.781 10.8L155.5 0L152.219 10.8H142L150.343 16.7535L147.17 27L155.5 20.6685L163.843 27L160.67 16.7535L169 10.8H158.781Z" fill="#F3B20A"/>
</svg>
