<svg width="173" height="27" viewBox="0 0 173 27" fill="none" xmlns="http://www.w3.org/2000/svg">
<path d="M17.6079 10.8L14.2624 0L10.917 10.8H0.495117L9.00333 16.7535L5.768 27L14.2624 20.6685L22.7707 27L19.5353 16.7535L28.0298 10.8H17.6079Z" fill="#F3B20A"/>
<path d="M53.687 10.8L50.4654 0L47.2439 10.8H37.208L45.4011 16.7535L42.2856 27L50.4654 20.6685L58.6585 27L55.543 16.7535L63.7229 10.8H53.687Z" fill="#F3B20A"/>
<path d="M90.3999 10.8L87.1783 0L83.9568 10.8H73.9209L82.114 16.7535L78.9985 27L87.1783 20.6685L95.3714 27L92.2559 16.7535L100.436 10.8H90.3999Z" fill="#F3B20A"/>
<path d="M126.093 10.8L122.872 0L119.65 10.8H109.614L117.807 16.7535L114.692 27L122.872 20.6685L131.065 27L127.949 16.7535L136.129 10.8H126.093Z" fill="#2D438B"/>
<path d="M162.419 10.8L159.074 0L155.729 10.8H145.307L153.815 16.7535L150.58 27L159.074 20.6685L167.582 27L164.347 16.7535L172.841 10.8H162.419Z" fill="#2D438B"/>
</svg>
