<svg width="47" height="48" viewBox="0 0 47 48" fill="none" xmlns="http://www.w3.org/2000/svg">
<path d="M12.6754 31.65L8.62539 30.75C7.50039 30.525 6.52539 31.35 6.52539 32.475V34.2C6.52539 35.55 7.57539 35.775 8.85039 35.85H13.5004C14.3254 35.85 15.0004 35.55 15.0004 34.725V34.5C14.9254 33.075 14.0254 31.95 12.6754 31.65ZM7.95039 34.275C7.95039 33 7.95039 32.325 7.95039 32.4C7.95039 32.175 8.10039 32.025 8.32539 32.1L12.4504 33C13.0504 33.15 13.5004 33.675 13.5754 34.275C13.4254 34.35 8.02539 34.35 7.95039 34.275Z" fill="white"/>
<path d="M37.5748 30.7501L33.4498 31.6501C32.0998 31.9501 31.1998 33.0751 31.1998 34.4251C31.1998 34.5001 31.0498 35.4751 32.0998 35.7001C32.6248 35.8501 35.9998 35.7751 37.4248 35.7751C38.6998 35.7751 39.6748 35.4751 39.6748 34.1251V32.4001C39.7498 31.3501 38.6998 30.5251 37.5748 30.7501ZM38.2498 34.2751C38.0248 34.3501 32.7748 34.3501 32.6998 34.3501C32.7748 33.7501 33.1498 33.2251 33.7498 33.0751L37.8748 32.1751C38.0998 32.1001 38.2498 32.2501 38.2498 32.4751V34.2751Z" fill="white"/>
<path d="M28.1252 35.0996H18.0752C17.7002 35.0996 17.3252 35.3996 17.3252 35.8496C17.3252 36.2996 17.6252 36.5996 18.0752 36.5996H28.1252C28.5002 36.5996 28.8752 36.2996 28.8752 35.8496C28.8752 35.3996 28.5752 35.0996 28.1252 35.0996Z" fill="white"/>
<path d="M28.1252 38.1748H18.0752C17.7002 38.1748 17.3252 38.4748 17.3252 38.9248C17.3252 39.3748 17.6252 39.6748 18.0752 39.6748H28.1252C28.5002 39.6748 28.8752 39.3748 28.8752 38.9248C28.8752 38.4748 28.5752 38.1748 28.1252 38.1748Z" fill="white"/>
<path d="M44.1 22.65H42.75C41.475 22.65 40.275 23.25 39.6 24.375L38.25 21.675C42.15 19.875 44.85 15.975 44.85 11.4C44.775 5.1 39.675 0 33.45 0C27.225 0 22.125 5.1 22.125 11.325C22.125 12.675 22.35 13.95 22.8 15.15H13.725C12 15.15 10.425 16.2 9.825 17.775L6.675 24.3C6 23.25 4.8 22.575 3.525 22.575H2.1C0.975 22.575 0 23.55 0 24.675V25.575C0 26.7 0.9 27.675 2.1 27.675H4.275C3.375 28.8 2.925 30.225 2.925 31.725V36.525C2.925 38.325 3.6 40.125 4.875 41.625V45.225C4.875 46.8 6.15 48 7.65 48H10.65C12.225 48 13.425 46.725 13.425 45.225V43.8H32.7V45.225C32.7 46.8 33.975 48 35.475 48H38.475C40.05 48 41.25 46.725 41.25 45.225V41.625C42.525 40.2 43.2 38.475 43.2 36.6V31.8C43.2 30.9 42.975 29.925 42.6 29.1C42.375 28.65 42.15 28.2 41.775 27.75H44.1C45.225 27.75 46.2 26.85 46.2 25.65V24.75C46.125 23.55 45.225 22.65 44.1 22.65ZM33.45 1.5C38.925 1.5 43.35 5.925 43.35 11.325C43.35 16.725 38.925 21.15 33.525 21.15C28.125 21.15 23.7 16.725 23.7 11.325C23.7 5.925 28.05 1.5 33.45 1.5ZM11.175 18.375C11.55 17.325 12.6 16.65 13.725 16.65H23.475C25.35 20.25 29.1 22.65 33.45 22.65C34.65 22.65 35.775 22.5 36.825 22.125C36.9 22.2 38.7 26.025 39 26.55H7.125C7.425 26.1 6.975 27.15 11.175 18.375ZM1.5 25.575V24.675C1.5 24.3 1.8 24 2.1 24H3.45C5.1 24 5.7 25.5 5.85 25.725C5.775 25.875 5.625 26.025 5.55 26.175H2.1C1.8 26.175 1.5 25.95 1.5 25.575ZM12 45.15C12 45.9 11.4 46.5 10.65 46.5H7.65C6.9 46.5 6.3 45.9 6.3 45.15V42.75C7.275 43.35 8.4 43.65 9.525 43.65H12V45.15ZM38.55 46.5H35.55C34.8 46.5 34.2 45.9 34.2 45.15V43.725H36.675C37.8 43.725 38.925 43.425 39.9 42.825V45.225C39.9 45.9 39.3 46.5 38.55 46.5ZM41.85 36.45C41.85 39.45 39.675 42.225 36.675 42.225C27.45 42.225 19.725 42.225 9.525 42.225C6.525 42.225 4.35 39.375 4.35 36.45V31.65C4.35 30.3 4.875 28.95 5.925 27.975H40.35C40.8 28.425 41.175 28.95 41.475 29.55C41.775 30.225 41.925 30.975 41.925 31.65V36.45H41.85ZM44.7 25.575C44.7 25.95 44.4 26.175 44.1 26.175H40.65C40.5 26.025 40.425 25.875 40.35 25.725C40.575 25.5 41.1 24 42.75 24H44.1C44.475 24 44.7 24.3 44.7 24.6V25.575Z" fill="white"/>
<path d="M31.2002 14.325C31.2002 13.95 30.9002 13.575 30.4502 13.575C30.0002 13.575 29.7002 13.875 29.7002 14.325C29.7002 16.125 30.9752 17.625 32.7002 17.925V18.9C32.7002 19.275 33.0002 19.65 33.4502 19.65C33.9002 19.65 34.2002 19.35 34.2002 18.9V17.925C35.9252 17.55 37.2002 16.125 37.2002 14.325C37.2002 12.525 35.9252 11.025 34.2002 10.725V6.225C35.1002 6.525 35.7002 7.35 35.7002 8.325C35.7002 8.7 36.0002 9.075 36.4502 9.075C36.9002 9.075 37.2002 8.775 37.2002 8.325C37.2002 6.525 35.9252 5.025 34.2002 4.725V3.75C34.2002 3.375 33.9002 3 33.4502 3C33.0002 3 32.7002 3.3 32.7002 3.75V4.725C30.9752 5.1 29.7002 6.525 29.7002 8.325C29.7002 10.125 30.9752 11.625 32.7002 11.925V16.35C31.8752 16.125 31.2002 15.3 31.2002 14.325ZM35.7002 14.325C35.7002 15.3 35.0252 16.125 34.2002 16.425V12.225C35.1002 12.45 35.7002 13.35 35.7002 14.325ZM31.2002 8.325C31.2002 7.35 31.8752 6.525 32.7002 6.225V10.5C31.8752 10.125 31.2002 9.3 31.2002 8.325Z" fill="white"/>
</svg>
