<svg width="49" height="48" viewBox="0 0 49 48" fill="none" xmlns="http://www.w3.org/2000/svg">
<path d="M17.5801 37.2804V33.7204C17.5801 32.4704 19.0801 31.3804 20.9001 30.7204M27.4901 30.6504C29.4001 31.2604 31.0201 32.3904 31.0201 33.6504V37.2104" stroke="#00239B" stroke-width="1.41" stroke-linecap="round" stroke-linejoin="round"/>
<path d="M10.5303 46.7603H38.0603V41.2803H10.5303V46.7603Z" stroke="#00239B" stroke-width="1.41" stroke-linecap="round" stroke-linejoin="round"/>
<path d="M1 38.8398V34.0998C1.00224 33.4732 1.22811 32.868 1.63695 32.3932C2.04578 31.9183 2.6107 31.6051 3.23 31.5098M10.53 39.6998V46.7598H1V42.0198" stroke="#00239B" stroke-width="1.41" stroke-linecap="round" stroke-linejoin="round"/>
<path d="M47.5996 38.8395V34.0995C47.5969 33.482 47.3771 32.885 46.9785 32.4133C46.5799 31.9416 46.028 31.6252 45.4196 31.5195M38.0596 39.6995V46.7595H47.5996V42.0195" stroke="#00239B" stroke-width="1.41" stroke-linecap="round" stroke-linejoin="round"/>
<path d="M8.35977 31.4902C8.66603 31.4921 8.96777 31.5644 9.24171 31.7013C9.51565 31.8383 9.75448 32.0364 9.93977 32.2802L13.7098 37.2802H18.5498C19.0802 37.2802 19.5889 37.4909 19.964 37.866C20.3391 38.2411 20.5498 38.7498 20.5498 39.2802C20.5498 39.8107 20.3391 40.3194 19.964 40.6944C19.5889 41.0695 19.0802 41.2802 18.5498 41.2802H12.7198C12.411 41.2787 12.1067 41.2057 11.8309 41.0669C11.555 40.9281 11.315 40.7273 11.1298 40.4802L8.00977 36.3502" stroke="#00239B" stroke-width="1.41" stroke-linecap="round" stroke-linejoin="round"/>
<path d="M40.3498 31.4896C40.0251 31.474 39.7015 31.5378 39.4071 31.6755C39.1126 31.8131 38.8561 32.0205 38.6598 32.2796L34.8898 37.2796H30.0498C29.5194 37.2796 29.0107 37.4903 28.6356 37.8654C28.2605 38.2405 28.0498 38.7492 28.0498 39.2796C28.0498 39.81 28.2605 40.3187 28.6356 40.6938C29.0107 41.0689 29.5194 41.2796 30.0498 41.2796H35.8798C36.1886 41.2781 36.4928 41.205 36.7687 41.0662C37.0446 40.9274 37.2845 40.7266 37.4698 40.4796L40.5898 36.3496" stroke="#00239B" stroke-width="1.41" stroke-linecap="round" stroke-linejoin="round"/>
<path d="M8.29965 16.6899H20.2996C21.2439 16.6873 22.1489 16.3117 22.8176 15.6449C23.4862 14.9781 23.8644 14.0742 23.8696 13.1299V5.22992C23.8644 4.28565 23.4862 3.38169 22.8176 2.71492C22.1489 2.04814 21.2439 1.67254 20.2996 1.66992H4.94965C4.00629 1.67256 3.10232 2.04848 2.43526 2.71554C1.7682 3.38259 1.39229 4.28656 1.38965 5.22992V13.1299C1.39229 14.0733 1.7682 14.9772 2.43526 15.6443C3.10232 16.3114 4.00629 16.6873 4.94965 16.6899V20.0899L8.29965 16.6899Z" stroke="#00239B" stroke-width="1.41" stroke-linecap="round" stroke-linejoin="round"/>
<path d="M29.0704 19.3996H33.2004L36.5904 22.7896V19.3996C36.9445 19.4022 37.2956 19.3349 37.6236 19.2015C37.9517 19.0681 38.2501 18.8713 38.5019 18.6223C38.7537 18.3733 38.9538 18.0771 39.0908 17.7506C39.2279 17.424 39.2991 17.0737 39.3004 16.7196V9.93957C39.303 9.58294 39.2348 9.22935 39.0995 8.89935C38.9643 8.56936 38.7648 8.26955 38.5126 8.01738C38.2604 7.7652 37.9606 7.56568 37.6306 7.43043C37.3006 7.29518 36.947 7.22691 36.5904 7.22957H23.9504M19.0704 16.6596C19.0678 17.0137 19.1351 17.3648 19.2684 17.6928C19.4018 18.0208 19.5986 18.3193 19.8476 18.5711C20.0966 18.8229 20.3929 19.023 20.7194 19.16C21.0459 19.2971 21.3963 19.3683 21.7504 19.3696H25.8804" stroke="#00239B" stroke-width="1.41" stroke-linecap="round" stroke-linejoin="round"/>
<path d="M6.16016 9.23H19.1602M6.16016 12.92H12.6702M6.16016 5.5H19.1602" stroke="#00239B" stroke-width="1.41" stroke-linecap="round" stroke-linejoin="round"/>
<path d="M27.97 28.6099C27.9964 29.1247 27.9179 29.6394 27.7391 30.1229C27.5603 30.6063 27.285 31.0483 26.93 31.422C26.575 31.7957 26.1477 32.0933 25.6741 32.2966C25.2005 32.4999 24.6904 32.6048 24.175 32.6048C23.6596 32.6048 23.1495 32.4999 22.6759 32.2966C22.2023 32.0933 21.775 31.7957 21.42 31.422C21.065 31.0483 20.7897 30.6063 20.6109 30.1229C20.4321 29.6394 20.3536 29.1247 20.38 28.6099V24.5499C20.38 23.9867 20.603 23.4465 21.0003 23.0473C21.3976 22.6481 21.9368 22.4226 22.5 22.4199H27.97V28.6099Z" stroke="#00239B" stroke-width="1.41" stroke-linecap="round" stroke-linejoin="round"/>
<path d="M1.96984 28.6099C1.94341 29.1247 2.02198 29.6394 2.20076 30.1229C2.37954 30.6063 2.6548 31.0483 3.0098 31.422C3.3648 31.7957 3.79211 32.0933 4.26574 32.2966C4.73937 32.4999 5.24941 32.6048 5.76484 32.6048C6.28028 32.6048 6.79032 32.4999 7.26395 32.2966C7.73758 32.0933 8.16489 31.7957 8.51989 31.422C8.87488 31.0483 9.15015 30.6063 9.32893 30.1229C9.50771 29.6394 9.58628 29.1247 9.55984 28.6099V24.5499C9.55985 23.9867 9.33681 23.4465 8.93952 23.0473C8.54223 22.6481 8.00302 22.4226 7.43984 22.4199H4.09984C3.53574 22.4226 2.9955 22.6478 2.59661 23.0467C2.19773 23.4456 1.97247 23.9858 1.96984 24.5499V28.6099Z" stroke="#00239B" stroke-width="1.41" stroke-linecap="round" stroke-linejoin="round"/>
<path d="M46.62 28.6099C46.62 29.6151 46.2207 30.5791 45.51 31.2899C44.7992 32.0006 43.8352 32.3999 42.83 32.3999C41.8249 32.3999 40.8609 32.0006 40.1501 31.2899C39.4393 30.5791 39.04 29.6151 39.04 28.6099V24.5499C39.04 23.9867 39.2631 23.4465 39.6604 23.0473C40.0577 22.6481 40.5969 22.4226 41.16 22.4199H44.5C45.0632 22.4226 45.6024 22.6481 45.9997 23.0473C46.397 23.4465 46.62 23.9867 46.62 24.5499V28.6099Z" stroke="#00239B" stroke-width="1.41" stroke-linecap="round" stroke-linejoin="round"/>
<path d="M1.96973 28.7497C5.60973 29.8697 6.51973 27.5697 6.61973 25.4697C7.01787 25.8123 7.49897 26.0443 8.01491 26.1425C8.53084 26.2408 9.06354 26.2019 9.55973 26.0297" stroke="#00239B" stroke-width="1.41" stroke-linecap="round" stroke-linejoin="round"/>
<path d="M46.62 28.7497C42.98 29.8697 42.08 27.5697 41.98 25.4697C41.5819 25.8123 41.1008 26.0443 40.5849 26.1425C40.0689 26.2408 39.5362 26.2019 39.04 26.0297" stroke="#00239B" stroke-width="1.41" stroke-linecap="round" stroke-linejoin="round"/>
<path d="M20.3799 25.7695H27.9699" stroke="#00239B" stroke-width="1.41" stroke-linecap="round" stroke-linejoin="round"/>
</svg>
