<svg width="48" height="48" viewBox="0 0 48 48" fill="none" xmlns="http://www.w3.org/2000/svg">
<path d="M11.9053 32.4986L8.08629 31.6749C7.03793 31.4502 6.06445 32.2739 6.06445 33.3223V34.8949C6.06445 36.1679 7.03793 36.4674 8.23606 36.4674H12.5793C13.6276 36.4674 14.0021 36.0181 14.0021 35.419V35.1944C14.0769 33.9214 13.1783 32.7981 11.9053 32.4986ZM7.48723 34.9697C7.48723 34.8949 7.48723 34.82 7.48723 33.3223C7.48723 33.1725 7.637 33.0228 7.78676 33.0977L11.6058 33.9214C12.13 34.0711 12.5044 34.5204 12.5793 35.0446C8.08629 35.0446 7.71188 35.0446 7.48723 34.9697Z" fill="white"/>
<path d="M26.3589 35.7188H16.9236C16.5492 35.7188 16.1748 36.0183 16.1748 36.4676C16.1748 36.9169 16.4743 37.2164 16.9236 37.2164H26.3589C26.7333 37.2164 27.1077 36.9169 27.1077 36.4676C27.1077 36.0183 26.7333 35.7188 26.3589 35.7188Z" fill="white"/>
<path d="M26.3589 38.6396H16.9236C16.5492 38.6396 16.1748 38.9392 16.1748 39.3885C16.1748 39.8378 16.4743 40.1373 16.9236 40.1373H26.3589C26.7333 40.1373 27.1077 39.8378 27.1077 39.3885C27.1077 38.9392 26.7333 38.6396 26.3589 38.6396Z" fill="white"/>
<path d="M45.8284 4.79251H43.0577V3.74415C43.0577 3.36973 42.7582 2.99532 42.3089 2.99532H40.4368C40.0624 1.27301 38.5647 0 36.7676 0C34.9704 0 33.3978 1.27301 33.0983 2.99532H31.1513C30.7769 2.99532 30.4025 3.29485 30.4025 3.74415V4.71763H27.6318C26.5086 4.71763 25.61 5.61622 25.61 6.73947V17.0733H12.8799C11.2325 17.0733 9.80967 18.0468 9.21061 19.5445L6.29017 25.61C5.61622 24.6365 4.49298 24.0374 3.29485 24.0374H2.02184C0.898596 24.0374 0 24.936 0 26.0593V26.883C0 28.0062 0.898596 28.9048 2.02184 28.9048H3.9688C3.14509 29.9532 2.77067 31.3011 2.77067 32.649V37.142C2.77067 38.8643 3.36974 40.5117 4.56786 41.9345V45.3042C4.56786 46.8019 5.76599 48 7.26365 48H10.0343C11.532 48 12.7301 46.8019 12.7301 45.3042V43.9563H30.702V45.3042C30.702 46.8019 31.9002 48 33.3978 48H36.1685C37.6661 48 38.8643 46.8019 38.8643 45.3042V41.9345C40.0624 40.5866 40.6615 38.9392 40.6615 37.142V34.1466H45.9033C47.0265 34.1466 47.9251 33.2481 47.9251 32.1248V6.81435C47.9251 5.69111 46.9516 4.79251 45.8284 4.79251ZM31.8253 4.49298H33.6973C34.0718 4.49298 34.4462 4.19345 34.4462 3.74415C34.4462 2.47114 35.4945 1.49766 36.7676 1.49766C38.0406 1.49766 39.0889 2.54602 39.0889 3.81903C39.0889 4.19345 39.3885 4.56786 39.8378 4.56786H41.7098V6.51482H31.8253V4.49298ZM10.5585 20.1435C10.9329 19.17 11.8315 18.571 12.8799 18.571H25.5351V27.7067H6.81435C7.26365 27.1076 6.51482 28.4555 10.5585 20.1435ZM1.49766 26.883V26.0593C1.49766 25.7598 1.72231 25.5351 2.02184 25.5351H3.29485C4.79251 25.5351 5.31669 26.883 5.46646 27.1076C5.39158 27.2574 5.31669 27.3323 5.16693 27.4821H2.02184C1.72231 27.4072 1.49766 27.1825 1.49766 26.883ZM11.2325 45.2293C11.2325 45.9033 10.7083 46.4275 10.0343 46.4275H7.18877C6.51482 46.4275 5.99064 45.9033 5.99064 45.2293V43.0577C6.88924 43.5819 7.9376 43.8814 8.98596 43.8814H11.2325V45.2293ZM36.0936 46.4275H33.3229C32.649 46.4275 32.1248 45.9033 32.1248 45.2293V43.8814H34.3713C35.4197 43.8814 36.468 43.5819 37.3666 43.0577V45.2293C37.3666 45.9033 36.7676 46.4275 36.0936 46.4275ZM39.1638 37.0671C39.1638 39.7629 37.2169 42.4587 34.3713 42.4587C28.3058 42.4587 15.5008 42.4587 8.98596 42.4587C6.29017 42.4587 4.19345 39.8378 4.19345 37.0671V32.5741C4.19345 31.3011 4.71763 30.103 5.61623 29.1295H25.61V32.0499C25.61 33.1732 26.5086 34.0718 27.6318 34.0718H29.5039C29.3541 34.3713 29.2793 34.7457 29.2793 35.1201C29.3541 35.195 28.83 36.3931 31.0764 36.3931H35.195C36.468 36.3931 37.2917 36.0936 37.2917 34.8206V33.9969H39.1638V37.0671ZM31.3011 34.1466H35.869V35.0452C35.6443 35.1201 30.8518 35.1201 30.7769 35.1201C30.7769 34.6708 30.9267 34.2964 31.3011 34.1466ZM46.4275 32.0499C46.4275 32.3495 46.1279 32.649 45.8284 32.649H27.6318C27.3323 32.649 27.0328 32.3495 27.0328 32.0499C27.0328 28.6053 27.0328 21.3417 27.0328 17.8222C27.0328 14.3027 27.0328 17.8222 27.0328 17.8222V6.81435C27.0328 6.51482 27.3323 6.21529 27.6318 6.21529H30.4025V7.18877C30.4025 7.56318 30.702 7.9376 31.1513 7.9376H42.3838C42.7582 7.9376 43.1326 7.63807 43.1326 7.18877V6.21529H45.9033C46.2028 6.21529 46.5023 6.51482 46.5023 6.81435V32.0499H46.4275Z" fill="white"/>
<path d="M36.9918 2.92067C36.6923 2.77091 36.243 2.92067 36.0183 3.29509C35.8686 3.59462 35.9435 3.89415 36.1681 4.1188C36.5425 4.49322 37.1416 4.34345 37.3662 3.89415C37.516 3.51974 37.4411 3.07044 36.9918 2.92067Z" fill="white"/>
<path d="M44.3303 12.2803H36.243C35.8686 12.2803 35.4941 12.5798 35.4941 13.0291C35.4941 13.4784 35.7937 13.7779 36.243 13.7779H44.3303C44.7047 13.7779 45.0792 13.4784 45.0792 13.0291C45.0792 12.5798 44.7047 12.2803 44.3303 12.2803Z" fill="white"/>
<path d="M32.798 11.1582L30.6264 13.3298L29.6529 12.3564C29.3534 12.0568 28.9041 12.0568 28.6045 12.3564C28.305 12.6559 28.305 13.1052 28.6045 13.4047L30.1022 14.9024C30.4017 15.2019 30.851 15.2019 31.1506 14.9024L33.8463 12.2066C34.1459 11.9071 34.1459 11.4578 33.8463 11.1582C33.5468 10.8587 33.0975 10.8587 32.798 11.1582Z" fill="white"/>
<path d="M44.3303 19.0947H36.243C35.8686 19.0947 35.4941 19.3943 35.4941 19.8436C35.4941 20.2929 35.7937 20.5924 36.243 20.5924H44.3303C44.7047 20.5924 45.0792 20.2929 45.0792 19.8436C45.0792 19.3943 44.7047 19.0947 44.3303 19.0947Z" fill="white"/>
<path d="M32.798 17.9727L30.6264 20.1443L29.6529 19.1708C29.3534 18.8713 28.9041 18.8713 28.6045 19.1708C28.305 19.4704 28.305 19.9197 28.6045 20.2192L30.1022 21.7168C30.4017 22.0164 30.851 22.0164 31.1506 21.7168L33.8463 19.0211C34.1459 18.7215 34.1459 18.2722 33.8463 17.9727C33.5468 17.6732 33.0975 17.6732 32.798 17.9727Z" fill="white"/>
<path d="M44.3303 25.9854H36.243C35.8686 25.9854 35.4941 26.2849 35.4941 26.7342C35.4941 27.1835 35.7937 27.483 36.243 27.483H44.3303C44.7047 27.483 45.0792 27.1835 45.0792 26.7342C45.0792 26.2849 44.7047 25.9854 44.3303 25.9854Z" fill="white"/>
<path d="M33.8467 24.8614C33.5472 24.5618 33.0979 24.5618 32.7984 24.8614L31.9747 25.6851L31.1509 24.8614C30.8514 24.5618 30.4021 24.5618 30.1026 24.8614C29.803 25.1609 29.803 25.6102 30.1026 25.9097L30.9263 26.7334L30.1026 27.5572C29.803 27.8567 29.803 28.306 30.1026 28.6055C30.4021 28.905 30.8514 28.905 31.1509 28.6055L31.9747 27.7818L32.7984 28.6055C33.0979 28.905 33.5472 28.905 33.8467 28.6055C34.1463 28.306 34.1463 27.8567 33.8467 27.5572L33.023 26.7334L33.8467 25.9097C34.1463 25.6102 34.1463 25.086 33.8467 24.8614Z" fill="white"/>
</svg>
