<svg width="49" height="48" viewBox="0 0 49 48" fill="none" xmlns="http://www.w3.org/2000/svg">
<path d="M47.9202 11.3758C47.755 10.7614 47.3519 10.2375 46.8003 9.91997C46.2484 9.60083 45.5921 9.5145 44.9765 9.67973C44.3617 9.84536 43.8378 10.2481 43.5203 10.7997L43.1203 11.4957C42.7402 11.2774 42.2546 11.4059 42.0324 11.784L40.0003 15.2477L39.3042 14.8477C39.1199 14.7411 38.9003 14.7122 38.6949 14.7676C38.489 14.8235 38.314 14.9586 38.2081 15.1438C37.9913 15.5262 38.1234 16.0122 38.5042 16.2317L39.2003 16.6317L32.4003 28.4157L30.7203 32.904L29.9203 34.3997C29.4519 35.2145 29.5019 36.2274 30.0484 36.9918L28.2484 39.1997L27.7445 37.936C27.5171 37.3727 26.991 36.9868 26.3859 36.9395C25.7804 36.8918 25.2003 37.1911 24.8882 37.7118L24.6003 38.1997L24.3285 34.9997C24.266 34.2426 23.6796 33.634 22.9257 33.5426C22.1714 33.4516 21.4574 33.9036 21.2163 34.6239L19.2484 40.5278C19.1109 40.9454 19.3359 41.3954 19.7523 41.536C19.8304 41.5723 19.9144 41.5942 20.0003 41.5997C20.3441 41.6008 20.6503 41.3817 20.7605 41.0559L22.7203 35.152L23.0003 38.3997C23.0581 39.0926 23.5562 39.6688 24.2335 39.8258C24.9109 39.9829 25.6117 39.6844 25.9683 39.0879L26.2644 38.5997L26.7605 39.8559C26.971 40.3852 27.4472 40.7629 28.0109 40.8469C28.5745 40.9309 29.1402 40.7086 29.4964 40.2637L31.3605 37.9039C31.5667 37.9579 31.7792 37.9848 31.9925 37.984C32.8499 37.9907 33.646 37.5391 34.0804 36.7997L34.8804 35.4637L37.9285 31.7598L44.8003 19.8317L45.4964 20.2317C45.682 20.3379 45.8171 20.5133 45.8722 20.72C45.9277 20.925 45.8988 21.1438 45.7925 21.3278L42.5925 26.8719C42.4718 27.054 42.4308 27.2774 42.4792 27.4907C42.5277 27.7036 42.6609 27.8875 42.8484 27.9997C43.0328 28.1067 43.2523 28.1356 43.4578 28.0801C43.6636 28.0243 43.8386 27.8891 43.9445 27.704L47.1445 22.1598C47.4636 21.6079 47.5499 20.9516 47.3843 20.336C47.2187 19.7211 46.816 19.1973 46.2644 18.8797L45.5683 18.4797L47.5683 15.0157C47.7867 14.6356 47.6581 14.1504 47.2804 13.9278L47.6804 13.2317C48.0081 12.6711 48.0949 12.0016 47.9202 11.3758ZM44.9042 11.5997C45.0101 11.4145 45.1859 11.279 45.3925 11.2239C45.598 11.1731 45.8152 11.2016 46.0003 11.304C46.1859 11.4098 46.321 11.5856 46.3765 11.7918C46.4273 11.9973 46.3988 12.2145 46.2964 12.3997L45.8964 13.0957L44.5042 12.2957L44.9042 11.5997ZM34.0003 33.936L33.6003 33.704L32.4163 33.0157L33.5523 29.9758L36.0722 31.4317L34.0003 33.936ZM31.6003 36.2477C31.2624 36.0122 31.1585 35.559 31.3605 35.1997L31.7605 34.504L33.1523 35.3039L32.7523 35.9918C32.6402 36.1864 32.4519 36.3247 32.2328 36.3735C32.0136 36.4219 31.7843 36.3766 31.6003 36.2477ZM36.9843 30.12L34.2163 28.52L40.6163 17.4317L43.3843 19.0317L36.9843 30.12ZM44.1843 17.6477L41.4163 16.0477L43.0163 13.2797L45.7843 14.8797L44.1843 17.6477Z" fill="white"/>
<path d="M12.624 35.8476L9.79238 38.6718L8.09629 36.9758C7.78418 36.6656 7.28027 36.6656 6.96816 36.9758C6.8166 37.1261 6.73145 37.3304 6.73145 37.5437C6.73145 37.757 6.8166 37.9617 6.96816 38.1117L8.66426 39.8078C8.96426 40.1054 9.36973 40.2722 9.79238 40.2718C10.2174 40.2742 10.6264 40.1074 10.9283 39.8078L13.7521 36.9758C14.024 36.6582 14.0057 36.1851 13.7104 35.8898C13.4146 35.5941 12.9416 35.5758 12.624 35.8476Z" fill="white"/>
<path d="M3.2002 38C3.2002 41.7558 6.24473 44.8 10.0002 44.8C13.7557 44.8 16.8002 41.7558 16.8002 38C16.8002 37.5582 16.442 37.2 16.0002 37.2C15.5584 37.2 15.2002 37.5582 15.2002 38C15.2002 40.8719 12.8721 43.2 10.0002 43.2C7.12832 43.2 4.8002 40.8719 4.8002 38C4.8002 35.1281 7.12832 32.8 10.0002 32.8C11.126 32.7969 12.2217 33.1621 13.1201 33.8402C13.4736 34.1054 13.9752 34.0336 14.24 33.6801C14.5053 33.3265 14.4338 32.8254 14.0803 32.5601C12.0197 31.0148 9.26269 30.7664 6.95918 31.9179C4.65527 33.0699 3.2002 35.4246 3.2002 38Z" fill="white"/>
<path d="M28.8002 6.3998C29.242 6.3998 29.6002 6.04199 29.6002 5.5998C29.6002 5.15801 29.242 4.7998 28.8002 4.7998H8.0002C7.5584 4.7998 7.2002 5.15801 7.2002 5.5998V8.7998C7.2002 9.24199 7.5584 9.5998 8.0002 9.5998H28.8002C29.242 9.5998 29.6002 9.24199 29.6002 8.7998C29.6002 8.35801 29.242 7.9998 28.8002 7.9998H8.8002V6.3998H28.8002Z" fill="white"/>
<path d="M10.3996 11.2002C9.95781 11.2002 9.59961 11.5584 9.59961 12.0002C9.59961 12.4424 9.95781 12.8002 10.3996 12.8002H26.3996C26.8414 12.8002 27.1996 12.4424 27.1996 12.0002C27.1996 11.5584 26.8414 11.2002 26.3996 11.2002H10.3996Z" fill="white"/>
<path d="M31.1998 16.7998H13.5998C13.158 16.7998 12.7998 17.158 12.7998 17.5998C12.7998 18.042 13.158 18.3998 13.5998 18.3998H31.1998C31.6416 18.3998 31.9998 18.042 31.9998 17.5998C31.9998 17.158 31.6416 16.7998 31.1998 16.7998Z" fill="white"/>
<path d="M23.1996 22.3996C23.1996 21.9578 22.8414 21.5996 22.3996 21.5996H6.39961C5.95781 21.5996 5.59961 21.9578 5.59961 22.3996C5.59961 22.8418 5.95781 23.1996 6.39961 23.1996H22.3996C22.8414 23.1996 23.1996 22.8418 23.1996 22.3996Z" fill="white"/>
<path d="M31.1998 21.5996H25.5998C25.158 21.5996 24.7998 21.9578 24.7998 22.3996C24.7998 22.8418 25.158 23.1996 25.5998 23.1996H31.1998C31.6416 23.1996 31.9998 22.8418 31.9998 22.3996C31.9998 21.9578 31.6416 21.5996 31.1998 21.5996Z" fill="white"/>
<path d="M14.3996 27.1996C14.8414 27.1996 15.1996 26.8418 15.1996 26.3996C15.1996 25.9578 14.8414 25.5996 14.3996 25.5996H6.39961C5.95781 25.5996 5.59961 25.9578 5.59961 26.3996C5.59961 26.8418 5.95781 27.1996 6.39961 27.1996H14.3996Z" fill="white"/>
<path d="M17.5998 27.1996H23.1998C23.6416 27.1996 23.9998 26.8418 23.9998 26.3996C23.9998 25.9578 23.6416 25.5996 23.1998 25.5996H17.5998C17.158 25.5996 16.7998 25.9578 16.7998 26.3996C16.7998 26.8418 17.158 27.1996 17.5998 27.1996Z" fill="white"/>
<path d="M36 36.8C35.5582 36.8 35.2 37.1582 35.2 37.6V45.6C35.2 46.0422 34.8418 46.4 34.4 46.4H2.4C1.9582 46.4 1.6 46.0422 1.6 45.6V2.4C1.6 1.9582 1.9582 1.6 2.4 1.6H34.4C34.8418 1.6 35.2 1.9582 35.2 2.4V17.4242C35.2 17.866 35.5582 18.2242 36 18.2242C36.4418 18.2242 36.8 17.866 36.8 17.4242V2.4C36.8 1.07461 35.7254 0 34.4 0H2.4C1.07461 0 0 1.07461 0 2.4V45.6C0 46.9258 1.07461 48 2.4 48H34.4C35.7254 48 36.8 46.9258 36.8 45.6V37.6C36.8 37.1582 36.4418 36.8 36 36.8Z" fill="white"/>
</svg>
