<svg width="302" height="54" viewBox="0 0 302 54" fill="none" xmlns="http://www.w3.org/2000/svg">
<g clip-path="url(#clip0_573_40)">
<path d="M0 5.05762C0.962712 5.58534 1.73768 6.01312 2.51264 6.4369C9.91074 10.5228 17.3088 14.6047 24.7069 18.6905C27.3754 20.1698 28.9892 22.3886 29.4286 25.4271C29.4846 25.8188 29.4886 26.2186 29.4886 26.6144C29.4925 35.5538 29.4925 44.4892 29.4886 53.4285C29.4886 53.5924 29.4766 53.7564 29.4646 53.9882C29.2529 53.8843 29.0891 53.8083 28.9293 53.7204C23.3288 50.63 17.7363 47.5356 12.1318 44.4532C10.1225 43.3458 8.79224 41.7186 8.50063 39.4238C8.34484 38.2044 8.47267 36.9451 8.47267 35.6258C13.43 38.3603 18.3554 41.0789 23.3887 43.8575C23.3887 43.5137 23.3887 43.2978 23.3887 43.0779C23.3887 37.6927 23.3727 32.3075 23.4007 26.9223C23.4087 25.463 22.8255 24.4556 21.5472 23.7559C15.6271 20.5096 9.72299 17.2313 3.80691 13.973C1.91344 12.9295 0.595204 11.4223 0.23169 9.27943C0.00798931 7.94812 0.0719038 6.57683 0 5.05762Z" fill="#00239B"/>
<path d="M52.4499 35.6219C52.4499 36.9493 52.5777 38.2086 52.4219 39.432C52.1383 41.6788 50.852 43.306 48.8787 44.3974C43.5458 47.3439 38.2129 50.2903 32.8761 53.2328C32.4327 53.4767 31.9893 53.7206 31.47 54.0044C31.454 53.7645 31.434 53.5886 31.434 53.4167C31.434 44.4774 31.422 35.542 31.438 26.6026C31.446 23.1964 32.956 20.5578 35.896 18.9066C44.0571 14.329 52.2661 9.83932 60.4552 5.31366C60.551 5.26169 60.6549 5.22571 60.7628 5.17773C61.0823 8.66393 60.9585 11.8223 57.1476 13.9412C51.2275 17.2315 45.2995 20.5018 39.3594 23.7601C38.1051 24.4477 37.5139 25.4392 37.5179 26.8745C37.5418 32.2797 37.5259 37.6849 37.5259 43.0861C37.5259 43.29 37.5259 43.4979 37.5259 43.8497C42.5471 41.0831 47.4686 38.3685 52.4499 35.6219Z" fill="#00239B"/>
<path d="M39.1601 6.69653C39.8831 7.38817 40.5582 8.03983 41.2852 8.73947C42.2479 8.19175 43.3465 7.56808 44.5129 6.90442C45.212 8.12779 45.899 9.32716 46.6061 10.5585C44.4969 11.7659 42.4197 12.9533 40.3185 14.1527C38.489 9.73495 35.3212 7.10432 30.4797 7.10032C25.6342 7.09232 22.4624 9.70697 20.6089 14.1527C18.5237 12.9613 16.4544 11.7779 14.3213 10.5625C15.0204 9.33916 15.7074 8.13978 16.4105 6.90442C17.565 7.56008 18.6755 8.19175 19.6542 8.74746C20.3772 8.04783 21.0403 7.40816 21.7673 6.70452C21.1761 5.68505 20.537 4.58162 19.8619 3.42223C21.0563 2.71859 22.2347 2.02695 23.485 1.29133C24.1402 2.39876 24.7873 3.49419 25.4344 4.58962C26.3652 4.35774 27.276 4.14585 28.1708 3.88199C28.2786 3.85 28.3585 3.54216 28.3585 3.36226C28.3745 2.25083 28.3665 1.14341 28.3665 0C29.7726 0 31.1228 0 32.5569 0C32.5569 1.03946 32.5968 2.07093 32.5409 3.10239C32.509 3.68609 32.6687 3.93796 33.2679 4.02591C33.8791 4.11786 34.4743 4.31776 35.0615 4.52565C35.3851 4.64159 35.5289 4.56563 35.6847 4.28578C36.244 3.30229 36.8232 2.33079 37.4344 1.29133C38.6487 2.00296 39.8431 2.7026 41.0655 3.41823C40.4024 4.56163 39.7593 5.66506 39.1601 6.69653Z" fill="#00239B"/>
<path d="M2.77252 16.1318C3.02419 16.2558 3.19196 16.3277 3.35175 16.4157C8.4729 19.2422 13.5861 22.0847 18.7112 24.8993C20.5567 25.9108 21.4875 27.402 21.4635 29.5369C21.4276 32.8072 21.4555 36.0775 21.4555 39.3438C21.4555 39.5477 21.4555 39.7476 21.4555 40.0314C21.2198 39.9115 21.0521 39.8355 20.8923 39.7476C17.7045 37.9885 14.5208 36.2214 11.3251 34.4743C9.3717 33.4069 8.34906 31.8157 8.42097 29.5569C8.43695 29.0092 8.42496 28.4614 8.42496 27.7778C11.2652 29.341 14.0215 30.8642 16.8856 32.4434C16.8856 31.292 16.9096 30.2445 16.8617 29.2011C16.8537 29.0331 16.5741 28.8293 16.3743 28.7173C12.851 26.7583 9.32775 24.7873 5.77651 22.8603C3.73124 21.7529 2.69263 20.1018 2.76853 17.767C2.7885 17.2593 2.77252 16.7475 2.77252 16.1318Z" fill="#00239B"/>
<path d="M58.2256 16.1152C58.1457 17.3066 58.1857 18.41 57.978 19.4655C57.6864 20.9527 56.7077 22.0002 55.3854 22.7278C51.966 24.6108 48.5626 26.5338 45.1192 28.3729C44.2963 28.8127 43.8848 29.2804 44.0086 30.2439C44.0965 30.9276 44.0246 31.6272 44.0246 32.4588C46.8888 30.8796 49.6451 29.3604 52.4933 27.7932C52.4693 29.3804 52.713 30.8756 51.934 32.2589C51.4667 33.0864 50.8555 33.7701 50.0286 34.2298C46.6012 36.1369 43.1618 38.0319 39.7264 39.9309C39.6784 39.9589 39.6225 39.9629 39.5107 39.9949C39.4987 39.803 39.4747 39.627 39.4747 39.4511C39.4747 36.0689 39.4747 32.6866 39.4707 29.3044C39.4667 27.4374 40.2776 26.0101 41.8875 25.1106C47.1724 22.1561 52.4813 19.2416 57.7822 16.3111C57.8781 16.2512 57.982 16.2192 58.2256 16.1152Z" fill="#00239B"/>
<path d="M30.4675 10.1104C30.7512 10.9539 30.9948 11.6456 31.2145 12.3452C31.3064 12.637 31.4622 12.769 31.7818 12.757C32.4928 12.737 33.2039 12.749 33.9629 12.8809C33.4156 13.2927 32.8803 13.7205 32.3171 14.1083C32.0055 14.3242 31.9056 14.5281 32.0454 14.9039C32.2851 15.5515 32.4569 16.2232 32.7125 17.0547C31.8777 16.4711 31.1786 15.9793 30.4635 15.4796C29.7525 15.9793 29.0614 16.4671 28.2225 17.0547C28.4742 16.2272 28.65 15.5515 28.8857 14.8919C29.0095 14.5441 28.9456 14.3402 28.646 14.1323C28.0747 13.7365 27.5275 13.3087 26.9922 12.757C27.4875 12.757 27.9829 12.769 28.4782 12.753C29.8364 12.717 29.4569 12.9489 29.9283 11.6855C30.108 11.2138 30.2558 10.73 30.4675 10.1104Z" fill="#00239B"/>
<path d="M301.996 30.6326C301.996 32.0279 302.016 33.4232 301.992 34.8184C301.932 38.5845 298.96 41.6829 295.185 41.7948C292.297 41.8788 289.405 41.8748 286.517 41.7948C282.81 41.6909 279.846 38.7564 279.694 34.9863C279.582 32.0998 279.578 29.2013 279.694 26.3148C279.846 22.4209 282.89 19.5384 286.796 19.4744C289.485 19.4304 292.177 19.4304 294.866 19.4744C298.968 19.5384 301.964 22.6248 301.988 26.7466C302 28.0419 301.996 29.3373 301.996 30.6326ZM290.943 25.0155C289.748 25.0155 288.554 24.9755 287.36 25.0275C286.081 25.0795 285.282 25.7911 285.246 27.0784C285.178 29.4172 285.182 31.76 285.226 34.0988C285.25 35.4541 286.045 36.2337 287.392 36.2657C289.68 36.3177 291.969 36.3097 294.258 36.2697C295.609 36.2457 296.423 35.4901 296.459 34.1348C296.519 31.796 296.523 29.4532 296.455 27.1144C296.415 25.7591 295.581 25.0475 294.226 25.0155C293.132 24.9915 292.037 25.0115 290.943 25.0155Z" fill="#00239B"/>
<path d="M223.282 41.7342C221.576 41.7342 219.902 41.7342 218.045 41.7342C218.045 38.9157 218.045 36.1051 218.045 33.1947C214.202 33.1947 210.543 33.1947 206.688 33.1947C206.688 35.9972 206.688 38.8037 206.688 41.7142C204.787 41.7142 203.081 41.7142 201.183 41.7142C201.183 40.4269 201.183 39.1955 201.183 37.9642C201.183 34.2781 201.155 30.588 201.195 26.9019C201.243 22.3683 204.191 19.4818 208.733 19.4658C211.322 19.4578 213.914 19.4178 216.499 19.4778C220.226 19.5657 223.278 22.3523 223.378 26.0104C223.517 31.0398 223.426 36.0732 223.422 41.1065C223.418 41.2905 223.338 41.4784 223.282 41.7342ZM206.624 29.2847C210.507 29.2847 214.198 29.2847 217.945 29.2847C217.969 28.725 218.009 28.2852 218.005 27.8454C217.993 25.8105 217.238 25.0269 215.245 25.0109C213.155 24.9949 211.07 25.0029 208.981 25.0109C207.535 25.0189 206.8 25.8425 206.64 27.2058C206.564 27.8374 206.624 28.4851 206.624 29.2847Z" fill="#00239B"/>
<path d="M227.444 19.5382C229.182 19.5382 230.903 19.5382 232.845 19.5382C232.845 20.0899 232.845 20.6176 232.845 21.1453C232.845 25.2832 232.837 29.4211 232.849 33.5629C232.857 35.5419 233.568 36.2575 235.545 36.2855C237.487 36.3095 239.432 36.3095 241.373 36.2855C243.415 36.2615 244.11 35.5499 244.118 33.447C244.134 29.3571 244.122 25.2712 244.122 21.1813C244.122 20.6496 244.122 20.1139 244.122 19.5342C246.043 19.5342 247.765 19.5342 249.646 19.5342C249.646 22.1328 249.646 24.6635 249.646 27.1902C249.646 29.6849 249.674 32.1756 249.638 34.6703C249.579 38.7002 246.535 41.7547 242.516 41.8066C239.776 41.8426 237.035 41.8546 234.295 41.8026C230.496 41.7267 227.408 38.7722 227.336 34.9782C227.236 29.9928 227.312 25.0073 227.32 20.0179C227.32 19.882 227.388 19.7461 227.444 19.5382Z" fill="#00239B"/>
<path d="M144.894 19.4906C144.894 20.718 144.894 21.7534 144.894 22.9768C144.291 23.0128 143.72 23.0767 143.148 23.0767C138.91 23.0847 134.676 23.0528 130.437 23.0967C127.701 23.1247 126.255 24.6999 126.167 27.4145C126.127 28.5659 126.547 28.8417 127.633 28.8298C132.818 28.7818 137.999 28.8098 143.184 28.8098C143.72 28.8098 144.255 28.8098 144.862 28.8098C144.862 30.0691 144.862 31.1526 144.862 32.4279C138.722 32.4279 132.574 32.4279 126.487 32.4279C125.452 36.03 127.737 38.3008 130.625 38.2249C134.76 38.1169 138.898 38.1969 143.036 38.1969C143.62 38.1969 144.199 38.1969 144.858 38.1969C144.858 39.4722 144.858 40.5477 144.858 41.7271C144.403 41.7591 143.971 41.811 143.54 41.811C139.202 41.819 134.867 41.827 130.529 41.811C125.875 41.795 122.632 38.5647 122.596 33.9151C122.58 31.6203 122.56 29.3255 122.604 27.0307C122.68 23.0528 125.584 19.7025 129.523 19.5386C134.588 19.3347 139.669 19.4906 144.894 19.4906Z" fill="#00239B"/>
<path d="M186.915 29.6289C191.017 33.6908 194.944 37.5808 199.182 41.7826C196.29 41.7266 193.873 42.4023 191.84 39.8876C189.663 37.193 186.982 34.9021 184.498 32.4194C181.418 35.5218 178.414 38.5483 175.414 41.5747C175.298 41.4987 175.182 41.4228 175.066 41.3468C175.066 34.1146 175.066 26.8783 175.066 19.5541C176.141 19.5541 177.216 19.5541 178.542 19.5541C178.542 23.3401 178.542 27.1342 178.542 31.336C179.433 30.6444 179.972 30.2366 180.503 29.8168C187.69 24.1157 194.864 18.3987 202.074 12.7256C202.661 12.2659 203.472 12.09 204.175 11.7861C204.267 11.9381 204.359 12.086 204.447 12.2379C198.631 18.0109 192.811 23.7799 186.915 29.6289Z" fill="#00239B"/>
<path d="M118.614 41.739C117.447 41.739 116.377 41.739 115.126 41.739C115.126 38.6926 115.126 35.6821 115.126 32.5837C110.049 32.5837 105.148 32.5837 100.079 32.5837C100.079 35.6462 100.079 38.6606 100.079 41.743C98.8363 41.743 97.7657 41.743 96.5713 41.743C96.5713 34.3508 96.5713 27.0066 96.5713 19.5625C97.6738 19.5625 98.7524 19.5625 99.9947 19.5625C99.9947 22.533 99.9947 25.5474 99.9947 28.6818C105.06 28.6818 109.961 28.6818 115.031 28.6818C115.031 25.7113 115.031 22.6969 115.031 19.5745C116.305 19.5745 117.411 19.5745 118.614 19.5745C118.614 26.9667 118.614 34.3149 118.614 41.739Z" fill="#00239B"/>
<path d="M275.687 19.5742C275.687 21.3933 275.687 23.1124 275.687 25.0034C272.915 25.0034 270.246 25.0034 267.43 25.0034C267.43 30.6405 267.43 36.1056 267.43 41.6947C265.573 41.6947 263.863 41.6947 261.949 41.6947C261.949 36.1856 261.949 30.6845 261.949 25.0154C259.085 25.0154 256.417 25.0154 253.645 25.0154C253.645 23.1284 253.645 21.4053 253.645 19.5742C260.943 19.5742 268.241 19.5742 275.687 19.5742Z" fill="#00239B"/>
<path d="M92.5046 41.8024C87.3355 41.8024 82.3022 41.9223 77.2809 41.7624C73.3102 41.6385 70.2863 38.2402 70.2503 34.2343C70.2304 31.8396 70.2304 29.4448 70.2503 27.054C70.2863 23.0441 73.2823 19.6579 77.2769 19.5219C82.2982 19.35 87.3315 19.482 92.4686 19.482C92.4686 20.6574 92.4686 21.7648 92.4686 23.0801C91.8454 23.0801 91.2662 23.0801 90.683 23.0801C86.5965 23.0801 82.5099 23.0681 78.4234 23.0841C75.2796 23.0961 73.8375 24.5313 73.8136 27.6457C73.7976 29.7406 73.7776 31.8356 73.8216 33.9305C73.8775 36.689 75.3555 38.1643 78.1238 38.1843C82.3102 38.2202 86.4966 38.1963 90.683 38.1963C91.2662 38.1963 91.8494 38.1963 92.5006 38.1963C92.5046 39.4756 92.5046 40.551 92.5046 41.8024Z" fill="#00239B"/>
<path d="M170.964 41.815C166.997 41.815 163.119 41.839 159.244 41.803C157.706 41.791 156.132 41.839 154.638 41.5392C151.342 40.8755 149.017 38.1289 148.878 34.7867C148.762 32.0481 148.754 29.2975 148.874 26.5589C149.037 22.7809 151.949 19.6745 155.744 19.5346C160.766 19.3467 165.799 19.4866 171.072 19.4866C171.072 20.4781 171.188 21.4256 171.012 22.3131C170.944 22.641 170.185 23.0368 169.734 23.0448C165.495 23.1007 161.257 23.0328 157.023 23.1127C156.02 23.1327 154.933 23.3926 154.051 23.8563C152.876 24.476 152.417 25.6754 152.421 27.0187C152.425 29.3135 152.409 31.6083 152.425 33.9031C152.441 36.6777 153.875 38.1609 156.659 38.1849C160.598 38.2209 164.537 38.1649 168.475 38.2089C171.272 38.2369 171.108 37.5772 171.08 40.9835C171.076 41.1794 171.024 41.3753 170.964 41.815Z" fill="#00239B"/>
</g>
<defs>
<clipPath id="clip0_573_40">
<rect width="302" height="54" fill="white"/>
</clipPath>
</defs>
</svg>
