<svg width="48" height="48" viewBox="0 0 48 48" fill="none" xmlns="http://www.w3.org/2000/svg">
<path d="M27.541 41.705H25.9672V33.9936C25.9672 33.7849 25.8843 33.5847 25.7367 33.4371C25.5892 33.2896 25.389 33.2067 25.1803 33.2067C24.9716 33.2067 24.7715 33.2896 24.6239 33.4371C24.4763 33.5847 24.3934 33.7849 24.3934 33.9936V41.705H3.93443V25.9673H10.4813C10.69 25.9673 10.8902 25.8844 11.0377 25.7369C11.1853 25.5893 11.2682 25.3891 11.2682 25.1804C11.2682 24.9717 11.1853 24.7716 11.0377 24.624C10.8902 24.4765 10.69 24.3936 10.4813 24.3936H3.14754C2.93885 24.3936 2.7387 24.4765 2.59113 24.624C2.44356 24.7716 2.36066 24.9717 2.36066 25.1804V41.705H0.786885C0.57819 41.705 0.378043 41.7879 0.230473 41.9355C0.0829037 42.0831 0 42.2832 0 42.4919V44.0657C0 45.1092 0.414519 46.1099 1.15237 46.8477C1.89021 47.5856 2.89095 48.0001 3.93443 48.0001H24.3934C25.4369 48.0001 26.4377 47.5856 27.1755 46.8477C27.9133 46.1099 28.3279 45.1092 28.3279 44.0657V42.4919C28.3279 42.2832 28.245 42.0831 28.0974 41.9355C27.9498 41.7879 27.7497 41.705 27.541 41.705ZM26.7541 44.0657C26.7541 44.6918 26.5054 45.2922 26.0627 45.7349C25.62 46.1776 25.0195 46.4263 24.3934 46.4263H22.8197V45.6395C22.8197 45.4308 22.7368 45.2306 22.5892 45.083C22.4416 44.9355 22.2415 44.8526 22.0328 44.8526C21.8241 44.8526 21.6239 44.9355 21.4764 45.083C21.3288 45.2306 21.2459 45.4308 21.2459 45.6395V46.4263H7.08197V45.6395C7.08197 45.4308 6.99906 45.2306 6.85149 45.083C6.70392 44.9355 6.50378 44.8526 6.29508 44.8526C6.08639 44.8526 5.88624 44.9355 5.73867 45.083C5.5911 45.2306 5.5082 45.4308 5.5082 45.6395V46.4263H3.93443C3.30834 46.4263 2.7079 46.1776 2.26519 45.7349C1.82248 45.2922 1.57377 44.6918 1.57377 44.0657V43.2788H26.7541V44.0657Z" fill="white"/>
<path d="M40.9178 5.50834H42.4916C42.7003 5.50834 42.9004 5.42544 43.048 5.27787C43.1956 5.1303 43.2785 4.93015 43.2785 4.72146C43.2785 4.51276 43.1956 4.31261 43.048 4.16504C42.9004 4.01747 42.7003 3.93457 42.4916 3.93457H40.9178C40.2917 3.93457 39.6913 4.18328 39.2486 4.62599C38.8059 5.0687 38.5572 5.66914 38.5572 6.29523V7.08211H37.7703C37.5616 7.08211 37.3614 7.16501 37.2139 7.31258C37.0663 7.46015 36.9834 7.6603 36.9834 7.869C36.9834 8.07769 37.0663 8.27784 37.2139 8.42541C37.3614 8.57298 37.5616 8.65588 37.7703 8.65588H38.5572V11.0165C38.5572 11.2252 38.6401 11.4254 38.7876 11.5729C38.9352 11.7205 39.1354 11.8034 39.3441 11.8034C39.5527 11.8034 39.7529 11.7205 39.9005 11.5729C40.048 11.4254 40.1309 11.2252 40.1309 11.0165V8.65588H40.9178C41.1265 8.65588 41.3267 8.57298 41.4742 8.42541C41.6218 8.27784 41.7047 8.07769 41.7047 7.869C41.7047 7.6603 41.6218 7.46015 41.4742 7.31258C41.3267 7.16501 41.1265 7.08211 40.9178 7.08211H40.1309V6.29523C40.1309 6.08653 40.2138 5.88638 40.3614 5.73881C40.509 5.59124 40.7091 5.50834 40.9178 5.50834Z" fill="white"/>
<path d="M44.8521 0.787109H35.4095C34.7834 0.787109 34.183 1.03582 33.7402 1.47853C33.2975 1.92124 33.0488 2.52168 33.0488 3.14776V4.72154C33.0488 4.93023 33.1317 5.13038 33.2793 5.27795C33.4269 5.42552 33.627 5.50842 33.8357 5.50842C34.0444 5.50842 34.2446 5.42552 34.3921 5.27795C34.5397 5.13038 34.6226 4.93023 34.6226 4.72154V3.14776C34.6226 2.93907 34.7055 2.73892 34.8531 2.59135C35.0006 2.44378 35.2008 2.36088 35.4095 2.36088H44.8521C45.0608 2.36088 45.2609 2.44378 45.4085 2.59135C45.5561 2.73892 45.639 2.93907 45.639 3.14776V12.5904C45.639 12.7991 45.5561 12.9992 45.4085 13.1468C45.2609 13.2944 45.0608 13.3773 44.8521 13.3773H35.4095C35.2008 13.3773 35.0006 13.2944 34.8531 13.1468C34.7055 12.9992 34.6226 12.7991 34.6226 12.5904V7.86908C34.6226 7.66038 34.5397 7.46023 34.3921 7.31266C34.2446 7.16509 34.0444 7.08219 33.8357 7.08219C33.627 7.08219 33.4269 7.16509 33.2793 7.31266C33.1317 7.46023 33.0488 7.66038 33.0488 7.86908V12.5904C33.0488 13.2165 33.2975 13.8169 33.7402 14.2596C34.183 14.7023 34.7834 14.951 35.4095 14.951H44.8521C45.4782 14.951 46.0786 14.7023 46.5213 14.2596C46.964 13.8169 47.2128 13.2165 47.2128 12.5904V3.14776C47.2128 2.52168 46.964 1.92124 46.5213 1.47853C46.0786 1.03582 45.4782 0.787109 44.8521 0.787109Z" fill="white"/>
<path d="M36.9834 32.2628C36.9834 32.8853 37.168 33.4938 37.5139 34.0115C37.8597 34.5291 38.3513 34.9325 38.9264 35.1707C39.5016 35.409 40.1344 35.4713 40.745 35.3498C41.3556 35.2284 41.9164 34.9286 42.3566 34.4884C42.7968 34.0482 43.0966 33.4874 43.218 32.8768C43.3394 32.2663 43.2771 31.6334 43.0389 31.0583C42.8007 30.4831 42.3972 29.9915 41.8796 29.6457C41.362 29.2998 40.7535 29.1152 40.1309 29.1152C39.2962 29.1152 38.4956 29.4468 37.9053 30.0371C37.315 30.6274 36.9834 31.428 36.9834 32.2628ZM41.7047 32.2628C41.7047 32.574 41.6124 32.8783 41.4395 33.1371C41.2666 33.3959 41.0208 33.5976 40.7332 33.7167C40.4456 33.8359 40.1292 33.867 39.8239 33.8063C39.5186 33.7456 39.2382 33.5957 39.0181 33.3756C38.798 33.1555 38.6481 32.8751 38.5874 32.5698C38.5267 32.2645 38.5578 31.9481 38.677 31.6605C38.7961 31.373 38.9978 31.1272 39.2566 30.9542C39.5154 30.7813 39.8197 30.689 40.1309 30.689C40.5483 30.689 40.9486 30.8548 41.2438 31.15C41.5389 31.4451 41.7047 31.8454 41.7047 32.2628Z" fill="white"/>
<path d="M44.8521 25.1807H35.4095C34.7834 25.1807 34.183 25.4294 33.7402 25.8721C33.2975 26.3148 33.0488 26.9152 33.0488 27.5413V36.9839C33.0488 37.61 33.2975 38.2105 33.7402 38.6532C34.183 39.0959 34.7834 39.3446 35.4095 39.3446H44.8521C45.4782 39.3446 46.0786 39.0959 46.5213 38.6532C46.964 38.2105 47.2128 37.61 47.2128 36.9839V35.4102C47.2128 35.2015 47.1299 35.0013 46.9823 34.8538C46.8347 34.7062 46.6346 34.6233 46.4259 34.6233C46.2172 34.6233 46.017 34.7062 45.8695 34.8538C45.7219 35.0013 45.639 35.2015 45.639 35.4102V36.9839C45.639 37.1926 45.5561 37.3928 45.4085 37.5404C45.2609 37.6879 45.0608 37.7708 44.8521 37.7708H35.4095C35.2008 37.7708 35.0006 37.6879 34.8531 37.5404C34.7055 37.3928 34.6226 37.1926 34.6226 36.9839V27.5413C34.6226 27.3326 34.7055 27.1325 34.8531 26.9849C35.0006 26.8373 35.2008 26.7544 35.4095 26.7544H44.8521C45.0608 26.7544 45.2609 26.8373 45.4085 26.9849C45.5561 27.1325 45.639 27.3326 45.639 27.5413V32.2626C45.639 32.4713 45.7219 32.6715 45.8695 32.819C46.017 32.9666 46.2172 33.0495 46.4259 33.0495C46.6346 33.0495 46.8347 32.9666 46.9823 32.819C47.1299 32.6715 47.2128 32.4713 47.2128 32.2626V27.5413C47.2128 26.9152 46.964 26.3148 46.5213 25.8721C46.0786 25.4294 45.4782 25.1807 44.8521 25.1807Z" fill="white"/>
<path d="M17.6814 10.1112C17.8066 10.1888 17.9511 10.2297 18.0984 10.2292C18.2216 10.2285 18.3429 10.1988 18.4525 10.1427L23.1738 7.78201C23.3027 7.71598 23.4109 7.61565 23.4864 7.49209C23.5619 7.36852 23.6019 7.22651 23.6019 7.08168C23.6019 6.93686 23.5619 6.79485 23.4864 6.67128C23.4109 6.54771 23.3027 6.44739 23.1738 6.38136L18.4525 4.0207C18.3327 3.96034 18.1995 3.9316 18.0655 3.93721C17.9315 3.94283 17.8011 3.98261 17.6868 4.05278C17.5725 4.12294 17.478 4.22117 17.4123 4.33813C17.3466 4.45509 17.3119 4.58689 17.3115 4.72103V9.44234C17.3113 9.57607 17.3451 9.70765 17.4098 9.82468C17.4745 9.94171 17.568 10.0403 17.6814 10.1112ZM18.8853 5.99578L21.0571 7.08168L18.8853 8.16758V5.99578Z" fill="white"/>
<path d="M19.6718 14.1639C21.0725 14.1639 22.4417 13.7486 23.6063 12.9704C24.771 12.1922 25.6787 11.0862 26.2147 9.79212C26.7507 8.49806 26.891 7.07411 26.6177 5.70035C26.3444 4.32658 25.6699 3.06469 24.6795 2.07426C23.6891 1.08383 22.4272 0.40934 21.0534 0.136081C19.6797 -0.137178 18.2557 0.00306847 16.9617 0.539086C15.6676 1.0751 14.5615 1.98282 13.7834 3.14744C13.0052 4.31206 12.5898 5.68129 12.5898 7.08197C12.5898 8.96022 13.336 10.7615 14.6641 12.0897C15.9922 13.4178 17.7936 14.1639 19.6718 14.1639ZM19.6718 1.57377C20.7612 1.57377 21.8262 1.89682 22.732 2.50207C23.6378 3.10732 24.3438 3.96758 24.7607 4.97407C25.1776 5.98057 25.2867 7.08808 25.0742 8.15657C24.8616 9.22505 24.337 10.2065 23.5667 10.9769C22.7964 11.7472 21.8149 12.2718 20.7464 12.4843C19.6779 12.6969 18.5704 12.5878 17.5639 12.1709C16.5574 11.754 15.6972 11.048 15.0919 10.1422C14.4867 9.23634 14.1636 8.17139 14.1636 7.08197C14.1636 5.62111 14.7439 4.22007 15.7769 3.18709C16.8099 2.1541 18.2109 1.57377 19.6718 1.57377Z" fill="white"/>
<path d="M27.5408 17.3112C27.663 17.3112 27.7834 17.2827 27.8927 17.2281C28.002 17.1735 28.097 17.0941 28.1703 16.9964L30.531 13.8489C30.6562 13.6819 30.7099 13.472 30.6804 13.2654C30.6509 13.0589 30.5405 12.8724 30.3736 12.7472C30.2066 12.622 29.9968 12.5682 29.7902 12.5978C29.5836 12.6273 29.3972 12.7376 29.2719 12.9046L26.9113 16.0521C26.7861 16.2191 26.7323 16.429 26.7618 16.6356C26.7913 16.8422 26.9017 17.0286 27.0687 17.1538C27.2049 17.2559 27.3705 17.3112 27.5408 17.3112Z" fill="white"/>
<path d="M29.2726 20.1441C29.3459 20.2418 29.441 20.3211 29.5502 20.3758C29.6595 20.4304 29.78 20.4588 29.9021 20.4588C30.0724 20.4588 30.238 20.4036 30.3743 20.3015L33.5218 17.9408C33.6887 17.8156 33.7991 17.6292 33.8286 17.4226C33.8582 17.216 33.8044 17.0061 33.6792 16.8392C33.554 16.6722 33.3675 16.5618 33.1609 16.5323C32.9543 16.5028 32.7445 16.5566 32.5775 16.6818L29.43 19.0425C29.263 19.1677 29.1527 19.3541 29.1231 19.5607C29.0936 19.7673 29.1474 19.9771 29.2726 20.1441Z" fill="white"/>
<path d="M36.9834 21.8756C36.9647 21.7712 36.9251 21.6718 36.867 21.5831C36.8089 21.4945 36.7335 21.4185 36.6453 21.3597C36.5572 21.3009 36.458 21.2605 36.3538 21.241C36.2497 21.2215 36.1426 21.2232 36.0391 21.2461L32.1047 22.0329C32.0014 22.0433 31.9011 22.0739 31.8096 22.123C31.718 22.172 31.6371 22.2387 31.5713 22.3191C31.4385 22.4814 31.3756 22.6898 31.3965 22.8985C31.4174 23.1072 31.5203 23.2991 31.6826 23.4319C31.8449 23.5647 32.0534 23.6276 32.2621 23.6067H32.4195L36.3539 22.8198C36.4582 22.8011 36.5577 22.7615 36.6463 22.7035C36.735 22.6454 36.811 22.57 36.8698 22.4818C36.9285 22.3936 36.9689 22.2944 36.9884 22.1903C37.008 22.0861 37.0062 21.9791 36.9834 21.8756Z" fill="white"/>
<path d="M0.786885 22.0331H10.2295C10.4382 22.0331 10.6383 21.9502 10.7859 21.8026C10.9335 21.655 11.0164 21.4549 11.0164 21.2462V8.65603C11.0164 8.44733 10.9335 8.24718 10.7859 8.09961C10.6383 7.95204 10.4382 7.86914 10.2295 7.86914H0.786885C0.57819 7.86914 0.378043 7.95204 0.230473 8.09961C0.0829037 8.24718 0 8.44733 0 8.65603V21.2462C0 21.4549 0.0829037 21.655 0.230473 21.8026C0.378043 21.9502 0.57819 22.0331 0.786885 22.0331ZM1.57377 9.44291H9.44262V20.4593H1.57377V9.44291Z" fill="white"/>
<path d="M7.08234 11.0166H5.50856C5.29987 11.0166 5.09972 11.0995 4.95215 11.2471C4.80458 11.3946 4.72168 11.5948 4.72168 11.8035C4.72168 12.0122 4.80458 12.2123 4.95215 12.3599C5.09972 12.5075 5.29987 12.5904 5.50856 12.5904H7.08234C7.29103 12.5904 7.49118 12.5075 7.63875 12.3599C7.78632 12.2123 7.86922 12.0122 7.86922 11.8035C7.86922 11.5948 7.78632 11.3946 7.63875 11.2471C7.49118 11.0995 7.29103 11.0166 7.08234 11.0166Z" fill="white"/>
<path d="M7.08189 14.1641H3.93435C3.72565 14.1641 3.5255 14.247 3.37793 14.3945C3.23036 14.5421 3.14746 14.7423 3.14746 14.9509C3.14746 15.1596 3.23036 15.3598 3.37793 15.5074C3.5255 15.6549 3.72565 15.7378 3.93435 15.7378H7.08189C7.29058 15.7378 7.49073 15.6549 7.6383 15.5074C7.78587 15.3598 7.86877 15.1596 7.86877 14.9509C7.86877 14.7423 7.78587 14.5421 7.6383 14.3945C7.49073 14.247 7.29058 14.1641 7.08189 14.1641Z" fill="white"/>
<path d="M7.08189 17.3115H3.93435C3.72565 17.3115 3.5255 17.3944 3.37793 17.542C3.23036 17.6896 3.14746 17.8897 3.14746 18.0984C3.14746 18.3071 3.23036 18.5073 3.37793 18.6548C3.5255 18.8024 3.72565 18.8853 3.93435 18.8853H7.08189C7.29058 18.8853 7.49073 18.8024 7.6383 18.6548C7.78587 18.5073 7.86877 18.3071 7.86877 18.0984C7.86877 17.8897 7.78587 17.6896 7.6383 17.542C7.49073 17.3944 7.29058 17.3115 7.08189 17.3115Z" fill="white"/>
<path d="M26.8488 21.7966C26.7971 21.7067 26.7282 21.6279 26.6461 21.5646C26.5639 21.5013 26.4702 21.4548 26.37 21.4278C26.2699 21.4007 26.1655 21.3937 26.0627 21.407C25.9598 21.4203 25.8606 21.4538 25.7707 21.5055C25.6808 21.5571 25.602 21.626 25.5387 21.7081C25.4754 21.7903 25.4289 21.8841 25.4019 21.9842C25.3749 22.0843 25.3678 22.1887 25.3811 22.2916C25.3945 22.3944 25.4279 22.4936 25.4796 22.5835L28.9497 28.5874L16.3596 33.3087C16.3596 33.3087 16.3596 33.3087 16.3045 33.3087H16.2415L14.1956 34.4891L12.8343 35.2759C12.6551 35.3796 12.4572 35.4468 12.252 35.4738C12.0467 35.5008 11.8382 35.487 11.6383 35.4333C11.2366 35.3248 10.8943 35.0617 10.6861 34.7015L9.11237 31.9789C8.92722 31.6227 8.8852 31.2092 8.99491 30.823C9.10462 30.4368 9.35776 30.1072 9.70253 29.9015L12.4252 28.3277L14.3924 31.735C14.4617 31.855 14.5615 31.9547 14.6817 32.0238C14.802 32.0929 14.9383 32.129 15.077 32.1284C15.2154 32.129 15.3514 32.093 15.4715 32.0242C15.5916 31.9553 15.6913 31.856 15.7608 31.7363C15.8302 31.6166 15.8668 31.4807 15.867 31.3423C15.8671 31.2039 15.8307 31.0679 15.7615 30.9481L13.7314 27.4386L23.6068 19.2943L23.9294 19.853C23.9811 19.9429 24.05 20.0217 24.1321 20.085C24.2142 20.1483 24.308 20.1948 24.4081 20.2218C24.5082 20.2489 24.6127 20.2559 24.7155 20.2426C24.8184 20.2293 24.9175 20.1958 25.0075 20.1441C25.0974 20.0925 25.1762 20.0236 25.2395 19.9415C25.3028 19.8593 25.3493 19.7655 25.3763 19.6654C25.4033 19.5653 25.4104 19.4609 25.3971 19.358C25.3837 19.2552 25.3503 19.156 25.2986 19.0661L24.5117 17.7048C24.454 17.6062 24.3756 17.5214 24.2818 17.4561C24.1881 17.3909 24.0813 17.3469 23.9688 17.3271C23.8557 17.3058 23.7393 17.3095 23.6278 17.3381C23.5163 17.3666 23.4124 17.4193 23.3235 17.4923L12.3071 26.573L8.95499 28.5087C8.35343 28.8591 7.885 29.3991 7.62302 30.0441C7.36103 30.689 7.32028 31.4027 7.50712 32.0733L6.72024 32.5218C6.3148 32.7547 5.98763 33.1026 5.7802 33.5216C5.57278 33.9406 5.49444 34.4118 5.55513 34.8754C5.61582 35.339 5.81279 35.7741 6.12108 36.1256C6.42937 36.4771 6.83509 36.7291 7.2868 36.8497C7.48705 36.9028 7.69341 36.9292 7.90057 36.9284C8.31452 36.9267 8.72105 36.8183 9.08089 36.6136L9.86778 36.1651C10.2458 36.5556 10.7212 36.8381 11.2448 36.9835C11.5137 37.0587 11.7918 37.0958 12.0711 37.0936C12.6242 37.0949 13.1675 36.9482 13.6448 36.6687L14.3294 36.2753L15.9032 39.0058C16.216 39.5465 16.7303 39.9412 17.3335 40.1035C17.9368 40.2657 18.5797 40.1823 19.1215 39.8714C19.3903 39.7165 19.626 39.5101 19.815 39.2641C20.004 39.0181 20.1426 38.7373 20.223 38.4376C20.3034 38.138 20.324 37.8255 20.2835 37.5179C20.243 37.2103 20.1423 36.9138 19.9871 36.6451L18.555 34.1507L30.3583 29.7205C30.4653 29.6803 30.5623 29.6172 30.6425 29.5357C30.7227 29.4541 30.7841 29.3561 30.8225 29.2484C30.8608 29.142 30.8757 29.0285 30.8662 28.9158C30.8567 28.8031 30.823 28.6938 30.7674 28.5953L26.8488 21.7966ZM8.26253 35.2445C8.17293 35.2963 8.07398 35.3299 7.97136 35.3434C7.86874 35.3569 7.76446 35.35 7.6645 35.3232C7.4629 35.2708 7.29029 35.1406 7.1845 34.9612C7.1327 34.8716 7.09908 34.7726 7.08558 34.67C7.07208 34.5674 7.07895 34.4631 7.10581 34.3632C7.13268 34.2627 7.17919 34.1685 7.24267 34.0861C7.30615 34.0037 7.38534 33.9348 7.47565 33.8832L8.16024 33.4897L8.94712 34.851L8.26253 35.2445ZM18.6179 37.4477C18.6697 37.5374 18.7034 37.6363 18.7169 37.7389C18.7304 37.8415 18.7235 37.9458 18.6966 38.0458C18.6405 38.2458 18.5076 38.4155 18.3268 38.5179C18.1471 38.6212 17.9339 38.6493 17.7335 38.5963C17.5331 38.5432 17.3617 38.4133 17.2566 38.2346L15.6829 35.5041L16.9891 34.7566H17.052L18.6179 37.4477Z" fill="white"/>
</svg>
