<svg width="50" height="48" viewBox="0 0 50 48" fill="none" xmlns="http://www.w3.org/2000/svg">
<path d="M18.2803 37.2804V33.7204C18.2803 32.4704 19.7803 31.3804 21.6003 30.7204M28.1903 30.6504C30.1003 31.2604 31.7203 32.3904 31.7203 33.6504V37.2104" stroke="white" stroke-width="1.41" stroke-linecap="round" stroke-linejoin="round"/>
<path d="M11.2305 46.7603H38.7605V41.2803H11.2305V46.7603Z" stroke="white" stroke-width="1.41" stroke-linecap="round" stroke-linejoin="round"/>
<path d="M1.7002 38.8398V34.0998C1.70244 33.4732 1.92831 32.868 2.33714 32.3932C2.74597 31.9183 3.3109 31.6051 3.9302 31.5098M11.2302 39.6998V46.7598H1.7002V42.0198" stroke="white" stroke-width="1.41" stroke-linecap="round" stroke-linejoin="round"/>
<path d="M48.2998 38.8395V34.0995C48.2971 33.482 48.0773 32.885 47.6787 32.4133C47.2801 31.9416 46.7282 31.6252 46.1198 31.5195M38.7598 39.6995V46.7595H48.2998V42.0195" stroke="white" stroke-width="1.41" stroke-linecap="round" stroke-linejoin="round"/>
<path d="M9.05996 31.4902C9.36623 31.4921 9.66797 31.5644 9.94191 31.7013C10.2158 31.8383 10.4547 32.0364 10.64 32.2802L14.41 37.2802H19.25C19.7804 37.2802 20.2891 37.4909 20.6642 37.866C21.0392 38.2411 21.25 38.7498 21.25 39.2802C21.25 39.8107 21.0392 40.3194 20.6642 40.6944C20.2891 41.0695 19.7804 41.2802 19.25 41.2802H13.42C13.1112 41.2787 12.8069 41.2057 12.5311 41.0669C12.2552 40.9281 12.0152 40.7273 11.83 40.4802L8.70996 36.3502" stroke="white" stroke-width="1.41" stroke-linecap="round" stroke-linejoin="round"/>
<path d="M41.05 31.4896C40.7253 31.474 40.4017 31.5378 40.1073 31.6755C39.8128 31.8131 39.5563 32.0205 39.36 32.2796L35.59 37.2796H30.75C30.2196 37.2796 29.7109 37.4903 29.3358 37.8654C28.9607 38.2405 28.75 38.7492 28.75 39.2796C28.75 39.81 28.9607 40.3187 29.3358 40.6938C29.7109 41.0689 30.2196 41.2796 30.75 41.2796H36.58C36.8888 41.2781 37.193 41.205 37.4689 41.0662C37.7448 40.9274 37.9847 40.7266 38.17 40.4796L41.29 36.3496" stroke="white" stroke-width="1.41" stroke-linecap="round" stroke-linejoin="round"/>
<path d="M8.99984 16.6899H20.9998C21.9441 16.6873 22.8491 16.3117 23.5178 15.6449C24.1864 14.9781 24.5646 14.0742 24.5698 13.1299V5.22992C24.5646 4.28565 24.1864 3.38169 23.5178 2.71492C22.8491 2.04814 21.9441 1.67254 20.9998 1.66992H5.64984C4.70648 1.67256 3.80252 2.04848 3.13546 2.71554C2.4684 3.38259 2.09248 4.28656 2.08984 5.22992V13.1299C2.09248 14.0733 2.4684 14.9772 3.13546 15.6443C3.80252 16.3114 4.70648 16.6873 5.64984 16.6899V20.0899L8.99984 16.6899Z" stroke="white" stroke-width="1.41" stroke-linecap="round" stroke-linejoin="round"/>
<path d="M29.7706 19.3996H33.9006L37.2906 22.7896V19.3996C37.6447 19.4022 37.9958 19.3349 38.3238 19.2015C38.6519 19.0681 38.9503 18.8713 39.2021 18.6223C39.4539 18.3733 39.654 18.0771 39.791 17.7506C39.9281 17.424 39.9993 17.0737 40.0006 16.7196V9.93957C40.0032 9.58294 39.935 9.22935 39.7997 8.89935C39.6645 8.56936 39.465 8.26955 39.2128 8.01738C38.9606 7.7652 38.6608 7.56568 38.3308 7.43043C38.0008 7.29518 37.6472 7.22691 37.2906 7.22957H24.6506M19.7706 16.6596C19.7679 17.0137 19.8352 17.3648 19.9686 17.6928C20.102 18.0208 20.2988 18.3193 20.5478 18.5711C20.7968 18.8229 21.0931 19.023 21.4196 19.16C21.7461 19.2971 22.0965 19.3683 22.4506 19.3696H26.5806" stroke="white" stroke-width="1.41" stroke-linecap="round" stroke-linejoin="round"/>
<path d="M6.86035 9.23H19.8604M6.86035 12.92H13.3704M6.86035 5.5H19.8604" stroke="white" stroke-width="1.41" stroke-linecap="round" stroke-linejoin="round"/>
<path d="M28.6702 28.6099C28.6966 29.1247 28.6181 29.6394 28.4393 30.1229C28.2605 30.6063 27.9852 31.0483 27.6302 31.422C27.2752 31.7957 26.8479 32.0933 26.3743 32.2966C25.9007 32.4999 25.3906 32.6048 24.8752 32.6048C24.3598 32.6048 23.8497 32.4999 23.3761 32.2966C22.9025 32.0933 22.4752 31.7957 22.1202 31.422C21.7652 31.0483 21.4899 30.6063 21.3111 30.1229C21.1323 29.6394 21.0538 29.1247 21.0802 28.6099V24.5499C21.0802 23.9867 21.3032 23.4465 21.7005 23.0473C22.0978 22.6481 22.637 22.4226 23.2002 22.4199H28.6702V28.6099Z" stroke="white" stroke-width="1.41" stroke-linecap="round" stroke-linejoin="round"/>
<path d="M2.67004 28.6099C2.64361 29.1247 2.72217 29.6394 2.90095 30.1229C3.07974 30.6063 3.355 31.0483 3.71 31.422C4.06499 31.7957 4.49231 32.0933 4.96593 32.2966C5.43956 32.4999 5.94961 32.6048 6.46504 32.6048C6.98047 32.6048 7.49052 32.4999 7.96414 32.2966C8.43777 32.0933 8.86508 31.7957 9.22008 31.422C9.57508 31.0483 9.85034 30.6063 10.0291 30.1229C10.2079 29.6394 10.2865 29.1247 10.26 28.6099V24.5499C10.26 23.9867 10.037 23.4465 9.63972 23.0473C9.24242 22.6481 8.70322 22.4226 8.14004 22.4199H4.80004C4.23594 22.4226 3.69569 22.6478 3.29681 23.0467C2.89792 23.4456 2.67267 23.9858 2.67004 24.5499V28.6099Z" stroke="white" stroke-width="1.41" stroke-linecap="round" stroke-linejoin="round"/>
<path d="M47.3202 28.6099C47.3202 29.6151 46.9209 30.5791 46.2102 31.2899C45.4994 32.0006 44.5354 32.3999 43.5302 32.3999C42.5251 32.3999 41.5611 32.0006 40.8503 31.2899C40.1395 30.5791 39.7402 29.6151 39.7402 28.6099V24.5499C39.7402 23.9867 39.9633 23.4465 40.3606 23.0473C40.7578 22.6481 41.2971 22.4226 41.8602 22.4199H45.2002C45.7634 22.4226 46.3026 22.6481 46.6999 23.0473C47.0972 23.4465 47.3202 23.9867 47.3202 24.5499V28.6099Z" stroke="white" stroke-width="1.41" stroke-linecap="round" stroke-linejoin="round"/>
<path d="M2.66992 28.7497C6.30992 29.8697 7.21992 27.5697 7.31992 25.4697C7.71807 25.8123 8.19917 26.0443 8.7151 26.1425C9.23104 26.2408 9.76373 26.2019 10.2599 26.0297" stroke="white" stroke-width="1.41" stroke-linecap="round" stroke-linejoin="round"/>
<path d="M47.3202 28.7497C43.6802 29.8697 42.7802 27.5697 42.6802 25.4697C42.2821 25.8123 41.801 26.0443 41.2851 26.1425C40.7691 26.2408 40.2364 26.2019 39.7402 26.0297" stroke="white" stroke-width="1.41" stroke-linecap="round" stroke-linejoin="round"/>
<path d="M21.0801 25.7695H28.6701" stroke="white" stroke-width="1.41" stroke-linecap="round" stroke-linejoin="round"/>
</svg>
