<svg width="49" height="48" viewBox="0 0 49 48" fill="none" xmlns="http://www.w3.org/2000/svg">
<path d="M29.8316 19.8574C28.2543 19.8574 26.7223 20.1633 25.2784 20.7664C24.8003 20.9661 24.5747 21.5156 24.7744 21.9936C24.9741 22.4718 25.5235 22.6971 26.0016 22.4977C27.2153 21.9906 28.5038 21.7336 29.8316 21.7336C35.3146 21.7336 39.7753 26.1944 39.7753 31.6773C39.7753 37.1602 35.3146 41.621 29.8316 41.621C24.3486 41.621 19.8879 37.1602 19.8879 31.6773C19.8879 30.3516 20.1442 29.0647 20.6497 27.8527C20.8491 27.3745 20.6232 26.8252 20.145 26.6258C19.6672 26.4266 19.1175 26.6523 18.9181 27.1305C18.3167 28.5726 18.0117 30.1023 18.0117 31.6773C18.0117 38.1948 23.314 43.4971 29.8316 43.4971C36.3491 43.4971 41.6514 38.1948 41.6514 31.6773C41.6514 25.1598 36.3491 19.8574 29.8316 19.8574Z" fill="white"/>
<path d="M29.831 39.3699C34.0725 39.3699 37.5232 35.9192 37.5232 31.6776C37.5232 27.4361 34.0725 23.9854 29.831 23.9854C25.5894 23.9854 22.1387 27.4361 22.1387 31.6776C22.1387 35.9192 25.5895 39.3699 29.831 39.3699ZM29.831 25.8615C33.038 25.8615 35.6471 28.4707 35.6471 31.6776C35.6471 34.8846 33.038 37.4937 29.831 37.4937C26.6239 37.4937 24.0148 34.8847 24.0148 31.6776C24.0148 28.4706 26.6239 25.8615 29.831 25.8615Z" fill="white"/>
<path d="M43.2723 15.3543H40.4186L37.1433 9.81147C36.9746 9.52582 36.6674 9.35059 36.3357 9.35059H23.3276C22.9958 9.35059 22.6888 9.52582 22.52 9.81147L19.2447 15.3543H13.8836V14.2286C13.8836 12.3664 12.3687 10.8515 10.5065 10.8515C8.64434 10.8515 7.12943 12.3664 7.12943 14.2286V15.3543H4.75758C2.13423 15.3543 0 17.4886 0 20.112V43.2419C0 45.8654 2.13423 47.9996 4.75758 47.9996H43.2722C45.8955 47.9996 48.0298 45.8654 48.0298 43.2419V20.112C48.0299 17.4886 45.8955 15.3543 43.2723 15.3543ZM23.8629 11.2268H35.8004L38.2394 15.3543H21.4239L23.8629 11.2268ZM9.0056 14.2286C9.0056 13.401 9.67896 12.7277 10.5065 12.7277C11.3341 12.7277 12.0075 13.401 12.0075 14.2286V15.3543H9.0056V14.2286ZM46.1537 43.2419C46.1537 44.8309 44.8611 46.1235 43.2723 46.1235H4.75758C3.16875 46.1235 1.87617 44.8308 1.87617 43.2419V20.112C1.87617 18.5231 3.16875 17.2305 4.75758 17.2305H43.2722C44.861 17.2305 46.1536 18.5231 46.1536 20.112V43.2419H46.1537Z" fill="white"/>
<path d="M29.8316 29.8478C30.8404 29.8478 31.6609 30.6685 31.6609 31.6771C31.6609 32.1952 32.0809 32.6152 32.599 32.6152C33.1171 32.6152 33.5371 32.1952 33.5371 31.6771C33.5371 29.634 31.8748 27.9717 29.8316 27.9717C29.3135 27.9717 28.8936 28.3918 28.8936 28.9098C28.8936 29.4278 29.3135 29.8478 29.8316 29.8478Z" fill="white"/>
<path d="M29.8316 6.883C30.3497 6.883 30.7697 6.46292 30.7697 5.94491V0.938083C30.7697 0.420074 30.3497 0 29.8316 0C29.3135 0 28.8936 0.41998 28.8936 0.938083V5.94491C28.8936 6.46302 29.3135 6.883 29.8316 6.883Z" fill="white"/>
<path d="M34.2955 6.88254C34.5355 6.88254 34.7757 6.79089 34.9588 6.60778L38.4007 3.16586C38.767 2.79953 38.767 2.20554 38.4006 1.83912C38.0343 1.4729 37.4403 1.4729 37.074 1.83912L33.6322 5.28114C33.2658 5.64746 33.2658 6.24145 33.6322 6.60787C33.8154 6.79098 34.0554 6.88254 34.2955 6.88254Z" fill="white"/>
<path d="M24.7039 6.60872C24.8871 6.79183 25.1272 6.88348 25.3672 6.88348C25.6073 6.88348 25.8474 6.79183 26.0306 6.60872C26.3969 6.2424 26.397 5.6484 26.0307 5.28199L22.5887 1.84007C22.2224 1.47393 21.6284 1.47384 21.2621 1.84007C20.8958 2.20639 20.8957 2.80038 21.262 3.1668L24.7039 6.60872Z" fill="white"/>
<path d="M12.946 23.0469H8.06797C7.54986 23.0469 7.12988 23.4669 7.12988 23.985C7.12988 24.5031 7.54986 24.923 8.06797 24.923H12.946C13.4641 24.923 13.8841 24.5031 13.8841 23.985C13.8841 23.4669 13.4641 23.0469 12.946 23.0469Z" fill="white"/>
<path d="M22.1353 24.923C22.3821 24.923 22.6241 24.8227 22.7986 24.6482C22.9731 24.4737 23.0734 24.2325 23.0734 23.985C23.0734 23.7382 22.9731 23.4962 22.7986 23.3217C22.6241 23.1473 22.3821 23.0469 22.1353 23.0469C21.8886 23.0469 21.6466 23.1473 21.4721 23.3217C21.2967 23.4962 21.1973 23.7383 21.1973 23.985C21.1973 24.2317 21.2967 24.4737 21.4721 24.6482C21.6466 24.8227 21.8877 24.923 22.1353 24.923Z" fill="white"/>
</svg>
