<svg width="109" height="18" viewBox="0 0 109 18" fill="none" xmlns="http://www.w3.org/2000/svg">
<path d="M10.8229 6.96568L8.7071 0L6.59127 6.96568H0L5.38099 10.8055L3.33482 17.4142L8.7071 13.3306L14.0881 17.4142L12.0419 10.8055L17.4142 6.96568H10.8229Z" fill="#F3B20A"/>
<path d="M33.6408 6.96568L31.6034 0L29.5659 6.96568H23.2188L28.4004 10.8055L26.4301 17.4142L31.6034 13.3306L36.7851 17.4142L34.8147 10.8055L39.988 6.96568H33.6408Z" fill="#F3B20A"/>
<path d="M56.8596 6.96568L54.8221 0L52.7847 6.96568H46.4375L51.6192 10.8055L49.6488 17.4142L54.8221 13.3306L60.0038 17.4142L58.0334 10.8055L63.2067 6.96568H56.8596Z" fill="#F3B20A"/>
<path d="M79.4338 6.96568L77.3963 0L75.3589 6.96568H69.0117L74.1934 10.8055L72.223 17.4142L77.3963 13.3306L82.578 17.4142L80.6076 10.8055L85.7809 6.96568H79.4338Z" fill="#F3B20A"/>
<path d="M102.409 6.96568L100.293 0L98.1772 6.96568H91.5859L96.9669 10.8055L94.9208 17.4142L100.293 13.3306L105.674 17.4142L103.628 10.8055L109 6.96568H102.409Z" fill="#F3B20A"/>
</svg>
