<svg width="22" height="22" viewBox="0 0 22 22" fill="none" xmlns="http://www.w3.org/2000/svg">
<path d="M22 7.0002C21.9978 5.4126 21.456 3.87289 20.4636 2.63376C19.4711 1.39462 18.0869 0.529664 16.5381 0.180834C14.9893 -0.167996 13.3679 0.0200226 11.94 0.714034C10.5121 1.40805 9.36257 2.56682 8.68 4.0002H6V6.0002H3.5C3.18761 5.99973 2.88286 6.09679 2.6283 6.27786C2.37373 6.45892 2.18205 6.71495 2.08 7.0102L0 13.0002V21.0002C0 21.2654 0.105357 21.5198 0.292893 21.7073C0.48043 21.8948 0.734784 22.0002 1 22.0002H2C2.26522 22.0002 2.51957 21.8948 2.70711 21.7073C2.89464 21.5198 3 21.2654 3 21.0002V20.0002H15V21.0002C15 21.2654 15.1054 21.5198 15.2929 21.7073C15.4804 21.8948 15.7348 22.0002 16 22.0002H17C17.2652 22.0002 17.5196 21.8948 17.7071 21.7073C17.8946 21.5198 18 21.2654 18 21.0002V13.3202C19.1954 12.7519 20.2055 11.8567 20.9133 10.7383C21.6212 9.61982 21.9979 8.32382 22 7.0002ZM3.5 7.5002H8.03C8.14474 9.20536 8.88551 10.808 10.11 12.0002H2L3.5 7.5002ZM3.5 17.0002C3.10218 17.0002 2.72064 16.8422 2.43934 16.5609C2.15804 16.2796 2 15.898 2 15.5002C2 15.1024 2.15804 14.7208 2.43934 14.4395C2.72064 14.1582 3.10218 14.0002 3.5 14.0002C3.89782 14.0002 4.27936 14.1582 4.56066 14.4395C4.84196 14.7208 5 15.1024 5 15.5002C5 15.898 4.84196 16.2796 4.56066 16.5609C4.27936 16.8422 3.89782 17.0002 3.5 17.0002ZM14.5 17.0002C14.1022 17.0002 13.7206 16.8422 13.4393 16.5609C13.158 16.2796 13 15.898 13 15.5002C13 15.1024 13.158 14.7208 13.4393 14.4395C13.7206 14.1582 14.1022 14.0002 14.5 14.0002C14.8978 14.0002 15.2794 14.1582 15.5607 14.4395C15.842 14.7208 16 15.1024 16 15.5002C16 15.898 15.842 16.2796 15.5607 16.5609C15.2794 16.8422 14.8978 17.0002 14.5 17.0002ZM17.43 11.3702L17.22 11.4802L17.04 11.5702C16.9025 11.6298 16.7623 11.6832 16.62 11.7302L16.4 11.8002L16.17 11.8602L15.97 11.9102C15.2866 12.0446 14.5826 12.0347 13.9032 11.8812C13.2239 11.7277 12.5841 11.4339 12.0248 11.0187C11.4656 10.6035 10.9993 10.0761 10.6558 9.47016C10.3122 8.86426 10.0991 8.19327 10.03 7.5002C10.0097 7.33431 9.99973 7.16733 10 7.0002L10.02 6.5302L10.04 6.3602L10.08 6.0802L10.12 5.8702L10.17 5.6602L10.24 5.4202L10.29 5.2902C10.6857 4.18065 11.4612 3.24687 12.4792 2.65412C13.4972 2.06137 14.692 1.84789 15.8523 2.05144C17.0126 2.255 18.0635 2.86248 18.8189 3.76635C19.5743 4.67023 19.9856 5.81222 19.98 6.9902C19.988 7.8821 19.7554 8.75967 19.3067 9.53049C18.8579 10.3013 18.2096 10.9369 17.43 11.3702ZM14 3.0002H16V8.0002H14V3.0002ZM14 9.0002H16V11.0002H14V9.0002Z" fill="#001662"/>
</svg>
